{
  "accessors": [
    {
      "bufferView": 2,
      "componentType": 5126,
      "count": 2290,
      "max": [
        0.9441179037094116,
        2.3860766887664795,
        1.4619160890579224
      ],
      "min": [
        -0.9441179037094116,
        -2.398984909057617,
        0.20995353162288666
      ],
      "type": "VEC3"
    },
    {
      "bufferView": 2,
      "byteOffset": 27480,
      "componentType": 5126,
      "count": 2290,
      "max": [
        1.0,
        0.9994844198226929,
        0.9999985694885254
      ],
      "min": [
        -1.0,
        -1.0,
        -0.9944338798522949
      ],
      "type": "VEC3"
    },
    {
      "bufferView": 1,
      "componentType": 5126,
      "count": 2290,
      "max": [
        0.0,
        0.0
      ],
      "min": [
        0.0,
        0.0
      ],
      "type": "VEC2"
    },
    {
      "bufferView": 0,
      "componentType": 5125,
      "count": 3378,
      "type": "SCALAR"
    },
    {
      "bufferView": 2,
      "byteOffset": 54960,
      "componentType": 5126,
      "count": 774,
      "max": [
        0.7959311604499817,
        2.267117977142334,
        0.95164555311203
      ],
      "min": [
        -0.7959311604499817,
        1.8291808366775513,
        0.7998071312904358
      ],
      "type": "VEC3"
    },
    {
      "bufferView": 2,
      "byteOffset": 64248,
      "componentType": 5126,
      "count": 774,
      "max": [
        1.0,
        0.9976388812065125,
        0.9999998807907104
      ],
      "min": [
        -1.0,
        0.0,
        -1.0
      ],
      "type": "VEC3"
    },
    {
      "bufferView": 1,
      "byteOffset": 18320,
      "componentType": 5126,
      "count": 774,
      "max": [
        0.0,
        0.0
      ],
      "min": [
        0.0,
        0.0
      ],
      "type": "VEC2"
    },
    {
      "bufferView": 0,
      "byteOffset": 13512,
      "componentType": 5125,
      "count": 1134,
      "type": "SCALAR"
    },
    {
      "bufferView": 2,
      "byteOffset": 73536,
      "componentType": 5126,
      "count": 198,
      "max": [
        0.896729588508606,
        2.267117977142334,
        0.95164555311203
      ],
      "min": [
        -0.896729588508606,
        -2.292564868927002,
        0.6070413589477539
      ],
      "type": "VEC3"
    },
    {
      "bufferView": 2,
      "byteOffset": 75912,
      "componentType": 5126,
      "count": 198,
      "max": [
        0.9046867489814758,
        0.9869659543037415,
        0.6672368049621582
      ],
      "min": [
        -0.9046867489814758,
        -0.8621549010276794,
        -0.36048468947410583
      ],
      "type": "VEC3"
    },
    {
      "bufferView": 1,
      "byteOffset": 24512,
      "componentType": 5126,
      "count": 198,
      "max": [
        0.0,
        0.0
      ],
      "min": [
        0.0,
        0.0
      ],
      "type": "VEC2"
    },
    {
      "bufferView": 0,
      "byteOffset": 18048,
      "componentType": 5125,
      "count": 282,
      "type": "SCALAR"
    },
    {
      "bufferView": 2,
      "byteOffset": 78288,
      "componentType": 5126,
      "count": 1040,
      "max": [
        0.45231759548187256,
        2.3494808673858643,
        0.8821542263031006
      ],
      "min": [
        -0.45231759548187256,
        2.0635504722595215,
        0.2672004699707031
      ],
      "type": "VEC3"
    },
    {
      "bufferView": 2,
      "byteOffset": 90768,
      "componentType": 5126,
      "count": 1040,
      "max": [
        1.0,
        0.9951696395874023,
        0.9995177984237671
      ],
      "min": [
        -1.0,
        -1.0,
        -0.9995179176330566
      ],
      "type": "VEC3"
    },
    {
      "bufferView": 1,
      "byteOffset": 26096,
      "componentType": 5126,
      "count": 1040,
      "max": [
        0.0,
        0.0
      ],
      "min": [
        0.0,
        0.0
      ],
      "type": "VEC2"
    },
    {
      "bufferView": 0,
      "byteOffset": 19176,
      "componentType": 5125,
      "count": 1596,
      "type": "SCALAR"
    },
    {
      "bufferView": 2,
      "byteOffset": 103248,
      "componentType": 5126,
      "count": 3786,
      "max": [
        1.0401952266693115,
        2.3966639041900635,
        1.3858726024627686
      ],
      "min": [
        -1.0401952266693115,
        -2.384544849395752,
        0.16024327278137207
      ],
      "type": "VEC3"
    },
    {
      "bufferView": 2,
      "byteOffset": 148680,
      "componentType": 5126,
      "count": 3786,
      "max": [
        1.0,
        1.0,
        1.0
      ],
      "min": [
        -1.0,
        -1.0,
        -1.0
      ],
      "type": "VEC3"
    },
    {
      "bufferView": 1,
      "byteOffset": 34416,
      "componentType": 5126,
      "count": 3786,
      "max": [
        0.0,
        0.0
      ],
      "min": [
        0.0,
        0.0
      ],
      "type": "VEC2"
    },
    {
      "bufferView": 0,
      "byteOffset": 25560,
      "componentType": 5125,
      "count": 5742,
      "type": "SCALAR"
    },
    {
      "bufferView": 2,
      "byteOffset": 194112,
      "componentType": 5126,
      "count": 304,
      "max": [
        0.8316406011581421,
        -1.9394474029541016,
        0.7533230781555176
      ],
      "min": [
        -0.8316406011581421,
        -2.179237127304077,
        0.6180714964866638
      ],
      "type": "VEC3"
    },
    {
      "bufferView": 2,
      "byteOffset": 197760,
      "componentType": 5126,
      "count": 304,
      "max": [
        0.9169890880584717,
        0.0,
        1.0
      ],
      "min": [
        -0.9169886708259583,
        -0.9183362722396851,
        -1.0
      ],
      "type": "VEC3"
    },
    {
      "bufferView": 1,
      "byteOffset": 64704,
      "componentType": 5126,
      "count": 304,
      "max": [
        0.0,
        0.0
      ],
      "min": [
        0.0,
        0.0
      ],
      "type": "VEC2"
    },
    {
      "bufferView": 0,
      "byteOffset": 48528,
      "componentType": 5125,
      "count": 432,
      "type": "SCALAR"
    },
    {
      "bufferView": 2,
      "byteOffset": 201408,
      "componentType": 5126,
      "count": 18,
      "max": [
        0.8223730325698853,
        2.150761127471924,
        0.6111869812011719
      ],
      "min": [
        -0.8223730325698853,
        2.0473551750183105,
        0.3725161552429199
      ],
      "type": "VEC3"
    },
    {
      "bufferView": 2,
      "byteOffset": 201624,
      "componentType": 5126,
      "count": 18,
      "max": [
        0.6535608172416687,
        0.7603285312652588,
        -0.19184815883636475
      ],
      "min": [
        -0.6535608172416687,
        0.7321560978889465,
        -0.21809983253479004
      ],
      "type": "VEC3"
    },
    {
      "bufferView": 1,
      "byteOffset": 67136,
      "componentType": 5126,
      "count": 18,
      "max": [
        0.0,
        0.0
      ],
      "min": [
        0.0,
        0.0
      ],
      "type": "VEC2"
    },
    {
      "bufferView": 0,
      "byteOffset": 50256,
      "componentType": 5125,
      "count": 18,
      "type": "SCALAR"
    },
    {
      "bufferView": 2,
      "byteOffset": 201840,
      "componentType": 5126,
      "count": 320,
      "max": [
        0.7650406956672668,
        1.891168236732483,
        1.3843928575515747
      ],
      "min": [
        -0.7650406956672668,
        -0.9545851349830627,
        0.956963837146759
      ],
      "type": "VEC3"
    },
    {
      "bufferView": 2,
      "byteOffset": 205680,
      "componentType": 5126,
      "count": 320,
      "max": [
        0.9282720685005188,
        0.5214436054229736,
        0.9285186529159546
      ],
      "min": [
        -0.9282719492912292,
        -0.5192083716392517,
        0.3338131606578827
      ],
      "type": "VEC3"
    },
    {
      "bufferView": 1,
      "byteOffset": 67280,
      "componentType": 5126,
      "count": 320,
      "max": [
        0.0,
        0.0
      ],
      "min": [
        0.0,
        0.0
      ],
      "type": "VEC2"
    },
    {
      "bufferView": 0,
      "byteOffset": 50328,
      "componentType": 5125,
      "count": 480,
      "type": "SCALAR"
    },
    {
      "bufferView": 2,
      "byteOffset": 209520,
      "componentType": 5126,
      "count": 26,
      "max": [
        1.021511435508728,
        -0.3887300491333008,
        1.1056718826293945
      ],
      "min": [
        -1.021511435508728,
        -0.4737488329410553,
        0.9936473965644836
      ],
      "type": "VEC3"
    },
    {
      "bufferView": 2,
      "byteOffset": 209832,
      "componentType": 5126,
      "count": 26,
      "max": [
        0.42589443922042847,
        0.904772162437439,
        -0.0011429651640355587
      ],
      "min": [
        -0.4258948862552643,
        0.9047719836235046,
        -0.0011437704088166356
      ],
      "type": "VEC3"
    },
    {
      "bufferView": 1,
      "byteOffset": 69840,
      "componentType": 5126,
      "count": 26,
      "max": [
        0.0,
        0.0
      ],
      "min": [
        0.0,
        0.0
      ],
      "type": "VEC2"
    },
    {
      "bufferView": 0,
      "byteOffset": 52248,
      "componentType": 5125,
      "count": 66,
      "type": "SCALAR"
    },
    {
      "bufferView": 2,
      "byteOffset": 210144,
      "componentType": 5126,
      "count": 1780,
      "max": [
        0.014533099718391895,
        0.26801738142967224,
        0.26802682876586914
      ],
      "min": [
        -0.07822028547525406,
        -0.2679968476295471,
        -0.26795709133148193
      ],
      "type": "VEC3"
    },
    {
      "bufferView": 2,
      "byteOffset": 231504,
      "componentType": 5126,
      "count": 1780,
      "max": [
        1.0,
        0.9936660528182983,
        0.9999842643737793
      ],
      "min": [
        -0.00020372547442093492,
        -0.9940634965896606,
        -0.999721348285675
      ],
      "type": "VEC3"
    },
    {
      "bufferView": 1,
      "byteOffset": 70048,
      "componentType": 5126,
      "count": 1780,
      "max": [
        0.0,
        0.0
      ],
      "min": [
        0.0,
        0.0
      ],
      "type": "VEC2"
    },
    {
      "bufferView": 0,
      "byteOffset": 52512,
      "componentType": 5125,
      "count": 2604,
      "type": "SCALAR"
    },
    {
      "bufferView": 2,
      "byteOffset": 252864,
      "componentType": 5126,
      "count": 800,
      "max": [
        0.020389867946505547,
        0.3459452986717224,
        0.3459452986717224
      ],
      "min": [
        -0.30268025398254395,
        -0.34594523906707764,
        -0.34594523906707764
      ],
      "type": "VEC3"
    },
    {
      "bufferView": 2,
      "byteOffset": 262464,
      "componentType": 5126,
      "count": 800,
      "max": [
        0.9976076483726501,
        0.9876884818077087,
        0.987688422203064
      ],
      "min": [
        -0.997177004814148,
        -0.9876884818077087,
        -0.987688422203064
      ],
      "type": "VEC3"
    },
    {
      "bufferView": 1,
      "byteOffset": 84288,
      "componentType": 5126,
      "count": 800,
      "max": [
        0.0,
        0.0
      ],
      "min": [
        0.0,
        0.0
      ],
      "type": "VEC2"
    },
    {
      "bufferView": 0,
      "byteOffset": 62928,
      "componentType": 5125,
      "count": 1200,
      "type": "SCALAR"
    },
    {
      "bufferView": 2,
      "byteOffset": 272064,
      "componentType": 5126,
      "count": 1780,
      "max": [
        0.030222825706005096,
        0.2678754925727844,
        0.26807335019111633
      ],
      "min": [
        -0.06253058463335037,
        -0.26813873648643494,
        -0.26791056990623474
      ],
      "type": "VEC3"
    },
    {
      "bufferView": 2,
      "byteOffset": 293424,
      "componentType": 5126,
      "count": 1780,
      "max": [
        0.00020375616441015154,
        0.9936660528182983,
        0.9999842047691345
      ],
      "min": [
        -1.0,
        -0.9940634965896606,
        -0.999721348285675
      ],
      "type": "VEC3"
    },
    {
      "bufferView": 1,
      "byteOffset": 90688,
      "componentType": 5126,
      "count": 1780,
      "max": [
        0.0,
        0.0
      ],
      "min": [
        0.0,
        0.0
      ],
      "type": "VEC2"
    },
    {
      "bufferView": 0,
      "byteOffset": 67728,
      "componentType": 5125,
      "count": 2604,
      "type": "SCALAR"
    },
    {
      "bufferView": 2,
      "byteOffset": 314784,
      "componentType": 5126,
      "count": 800,
      "max": [
        0.2546827793121338,
        0.3458034098148346,
        0.345991849899292
      ],
      "min": [
        -0.06838743388652802,
        -0.34608712792396545,
        -0.34589871764183044
      ],
      "type": "VEC3"
    },
    {
      "bufferView": 2,
      "byteOffset": 324384,
      "componentType": 5126,
      "count": 800,
      "max": [
        0.9971773624420166,
        0.9876884818077087,
        0.9876884818077087
      ],
      "min": [
        -0.9976077675819397,
        -0.9876884818077087,
        -0.9876884818077087
      ],
      "type": "VEC3"
    },
    {
      "bufferView": 1,
      "byteOffset": 104928,
      "componentType": 5126,
      "count": 800,
      "max": [
        0.0,
        0.0
      ],
      "min": [
        0.0,
        0.0
      ],
      "type": "VEC2"
    },
    {
      "bufferView": 0,
      "byteOffset": 78144,
      "componentType": 5125,
      "count": 1200,
      "type": "SCALAR"
    },
    {
      "bufferView": 2,
      "byteOffset": 333984,
      "componentType": 5126,
      "count": 1780,
      "max": [
        0.014533099718391895,
        0.26801738142967224,
        0.26802682876586914
      ],
      "min": [
        -0.07822028547525406,
        -0.2679968476295471,
        -0.26795709133148193
      ],
      "type": "VEC3"
    },
    {
      "bufferView": 2,
      "byteOffset": 355344,
      "componentType": 5126,
      "count": 1780,
      "max": [
        1.0,
        0.9936660528182983,
        0.9999842643737793
      ],
      "min": [
        -0.00020372547442093492,
        -0.9940634965896606,
        -0.999721348285675
      ],
      "type": "VEC3"
    },
    {
      "bufferView": 1,
      "byteOffset": 111328,
      "componentType": 5126,
      "count": 1780,
      "max": [
        0.0,
        0.0
      ],
      "min": [
        0.0,
        0.0
      ],
      "type": "VEC2"
    },
    {
      "bufferView": 0,
      "byteOffset": 82944,
      "componentType": 5125,
      "count": 2604,
      "type": "SCALAR"
    },
    {
      "bufferView": 2,
      "byteOffset": 376704,
      "componentType": 5126,
      "count": 800,
      "max": [
        0.020389867946505547,
        0.3459452986717224,
        0.3459452986717224
      ],
      "min": [
        -0.30268025398254395,
        -0.34594523906707764,
        -0.34594523906707764
      ],
      "type": "VEC3"
    },
    {
      "bufferView": 2,
      "byteOffset": 386304,
      "componentType": 5126,
      "count": 800,
      "max": [
        0.9976076483726501,
        0.9876884818077087,
        0.987688422203064
      ],
      "min": [
        -0.997177004814148,
        -0.9876884818077087,
        -0.987688422203064
      ],
      "type": "VEC3"
    },
    {
      "bufferView": 1,
      "byteOffset": 125568,
      "componentType": 5126,
      "count": 800,
      "max": [
        0.0,
        0.0
      ],
      "min": [
        0.0,
        0.0
      ],
      "type": "VEC2"
    },
    {
      "bufferView": 0,
      "byteOffset": 93360,
      "componentType": 5125,
      "count": 1200,
      "type": "SCALAR"
    },
    {
      "bufferView": 2,
      "byteOffset": 395904,
      "componentType": 5126,
      "count": 1780,
      "max": [
        0.030222825706005096,
        0.2678754925727844,
        0.26807335019111633
      ],
      "min": [
        -0.06253058463335037,
        -0.26813873648643494,
        -0.26791056990623474
      ],
      "type": "VEC3"
    },
    {
      "bufferView": 2,
      "byteOffset": 417264,
      "componentType": 5126,
      "count": 1780,
      "max": [
        0.00020375616441015154,
        0.9936660528182983,
        0.9999842047691345
      ],
      "min": [
        -1.0,
        -0.9940634965896606,
        -0.999721348285675
      ],
      "type": "VEC3"
    },
    {
      "bufferView": 1,
      "byteOffset": 131968,
      "componentType": 5126,
      "count": 1780,
      "max": [
        0.0,
        0.0
      ],
      "min": [
        0.0,
        0.0
      ],
      "type": "VEC2"
    },
    {
      "bufferView": 0,
      "byteOffset": 98160,
      "componentType": 5125,
      "count": 2604,
      "type": "SCALAR"
    },
    {
      "bufferView": 2,
      "byteOffset": 438624,
      "componentType": 5126,
      "count": 800,
      "max": [
        0.2546827793121338,
        0.3458034098148346,
        0.345991849899292
      ],
      "min": [
        -0.06838743388652802,
        -0.34608712792396545,
        -0.34589871764183044
      ],
      "type": "VEC3"
    },
    {
      "bufferView": 2,
      "byteOffset": 448224,
      "componentType": 5126,
      "count": 800,
      "max": [
        0.9971773624420166,
        0.9876884818077087,
        0.9876884818077087
      ],
      "min": [
        -0.9976077675819397,
        -0.9876884818077087,
        -0.9876884818077087
      ],
      "type": "VEC3"
    },
    {
      "bufferView": 1,
      "byteOffset": 146208,
      "componentType": 5126,
      "count": 800,
      "max": [
        0.0,
        0.0
      ],
      "min": [
        0.0,
        0.0
      ],
      "type": "VEC2"
    },
    {
      "bufferView": 0,
      "byteOffset": 108576,
      "componentType": 5125,
      "count": 1200,
      "type": "SCALAR"
    },
    {
      "bufferView": 2,
      "byteOffset": 457824,
      "componentType": 5126,
      "count": 318,
      "max": [
        0.2816068232059479,
        0.28160667419433594,
        1.698984980583191
      ],
      "min": [
        -0.2816068232059479,
        -0.2816069424152374,
        -1.698984980583191
      ],
      "type": "VEC3"
    },
    {
      "bufferView": 2,
      "byteOffset": 461640,
      "componentType": 5126,
      "count": 318,
      "max": [
        0.9238795638084412,
        0.9238795638084412,
        1.0
      ],
      "min": [
        -0.9238795638084412,
        -0.9238795638084412,
        -1.0
      ],
      "type": "VEC3"
    },
    {
      "bufferView": 1,
      "byteOffset": 152608,
      "componentType": 5126,
      "count": 318,
      "max": [
        1.0,
        0.75
      ],
      "min": [
        0.0,
        0.01000000536441803
      ],
      "type": "VEC2"
    },
    {
      "bufferView": 0,
      "byteOffset": 113376,
      "componentType": 5125,
      "count": 516,
      "type": "SCALAR"
    },
    {
      "bufferView": 2,
      "byteOffset": 465456,
      "componentType": 5126,
      "count": 318,
      "max": [
        0.2816068232059479,
        0.28160667419433594,
        1.698984980583191
      ],
      "min": [
        -0.2816068232059479,
        -0.2816069424152374,
        -1.698984980583191
      ],
      "type": "VEC3"
    },
    {
      "bufferView": 2,
      "byteOffset": 469272,
      "componentType": 5126,
      "count": 318,
      "max": [
        0.9238795638084412,
        0.9238795638084412,
        1.0
      ],
      "min": [
        -0.9238795638084412,
        -0.9238795638084412,
        -1.0
      ],
      "type": "VEC3"
    },
    {
      "bufferView": 1,
      "byteOffset": 155152,
      "componentType": 5126,
      "count": 318,
      "max": [
        1.0,
        0.75
      ],
      "min": [
        0.0,
        0.01000000536441803
      ],
      "type": "VEC2"
    },
    {
      "bufferView": 0,
      "byteOffset": 115440,
      "componentType": 5125,
      "count": 516,
      "type": "SCALAR"
    }
  ],
  "asset": {
    "extras": {
      "author": "kulonee (https://sketchfab.com/ynesolefru)",
      "license": "CC-BY-SA-4.0 (http://creativecommons.org/licenses/by-sa/4.0/)",
      "source": "https://sketchfab.com/3d-models/bmw-m3-low-poly-stylized-d1a53b09c2d949b1a5e7062ada0b44ed",
      "title": "BMW M3 | Low-Poly Stylized"
    },
    "generator": "Sketchfab-16.85.0",
    "version": "2.0"
  },
  "bufferViews": [
    {
      "buffer": 0,
      "byteLength": 117504,
      "name": "floatBufferViews",
      "target": 34963
    },
    {
      "buffer": 0,
      "byteLength": 157696,
      "byteOffset": 117504,
      "byteStride": 8,
      "name": "floatBufferViews",
      "target": 34962
    },
    {
      "buffer": 0,
      "byteLength": 473088,
      "byteOffset": 275200,
      "byteStride": 12,
      "name": "floatBufferViews",
      "target": 34962
    }
  ],
  "buffers": [
    {
      "byteLength": 748288,
      "uri": "scene.bin"
    }
  ],
  "materials": [
    {
      "doubleSided": true,
      "name": "CarPaint",
      "pbrMetallicRoughness": {
        "baseColorFactor": [
          0.0394631,
          0.0394631,
          0.0394631,
          1.0
        ],
        "metallicFactor": 0.1,
        "roughnessFactor": 0.15
      }
    },
    {
      "doubleSided": true,
      "name": "RearLight",
      "pbrMetallicRoughness": {
        "baseColorFactor": [
          0.552581,
          0.0,
          0.0,
          1.0
        ],
        "metallicFactor": 0.0,
        "roughnessFactor": 0.5
      }
    },
    {
      "alphaMode": "BLEND",
      "doubleSided": true,
      "name": "Transparent",
      "pbrMetallicRoughness": {
        "baseColorFactor": [
          0.151256,
          0.151256,
          0.151256,
          0.1
        ],
        "metallicFactor": 0.0,
        "roughnessFactor": 0.0
      }
    },
    {
      "doubleSided": true,
      "name": "Exhaust",
      "pbrMetallicRoughness": {
        "baseColorFactor": [
          0.282011,
          0.282011,
          0.282011,
          1.0
        ],
        "roughnessFactor": 0.3
      }
    },
    {
      "doubleSided": true,
      "name": "Plastic",
      "pbrMetallicRoughness": {
        "baseColorFactor": [
          0.0,
          0.0,
          0.0,
          1.0
        ],
        "metallicFactor": 0.0,
        "roughnessFactor": 0.5
      }
    },
    {
      "doubleSided": true,
      "name": "DayLights",
      "pbrMetallicRoughness": {
        "metallicFactor": 0.0,
        "roughnessFactor": 0.2
      }
    },
    {
      "doubleSided": true,
      "name": "RedPart",
      "pbrMetallicRoughness": {
        "baseColorFactor": [
          0.776171,
          0.0,
          0.0,
          1.0
        ],
        "metallicFactor": 0.1,
        "roughnessFactor": 0.15
      }
    },
    {
      "doubleSided": true,
      "name": "Window",
      "pbrMetallicRoughness": {
        "baseColorFactor": [
          0.0,
          0.0,
          0.0,
          1.0
        ],
        "metallicFactor": 0.0,
        "roughnessFactor": 0.1
      }
    },
    {
      "doubleSided": true,
      "name": "Mirror",
      "pbrMetallicRoughness": {
        "baseColorFactor": [
          0.8,
          0.8,
          0.8,
          1.0
        ],
        "roughnessFactor": 0.0
      }
    },
    {
      "doubleSided": true,
      "name": "Rims",
      "pbrMetallicRoughness": {
        "baseColorFactor": [
          0.0303062,
          0.0303062,
          0.0303062,
          1.0
        ],
        "metallicFactor": 0.75,
        "roughnessFactor": 0.5
      }
    },
    {
      "doubleSided": true,
      "name": "Tires",
      "pbrMetallicRoughness": {
        "baseColorFactor": [
          0.0,
          0.0,
          0.0,
          1.0
        ],
        "metallicFactor": 0.0,
        "roughnessFactor": 0.9
      }
    }
  ],
  "meshes": [
    {
      "name": "Body_CarPaint_0",
      "primitives": [
        {
          "attributes": {
            "NORMAL": 1,
            "POSITION": 0,
            "TEXCOORD_0": 2
          },
          "indices": 3,
          "material": 0,
          "mode": 4
        }
      ]
    },
    {
      "name": "Body_RearLight_0",
      "primitives": [
        {
          "attributes": {
            "NORMAL": 5,
            "POSITION": 4,
            "TEXCOORD_0": 6
          },
          "indices": 7,
          "material": 1,
          "mode": 4
        }
      ]
    },
    {
      "name": "Body_Transparent_0",
      "primitives": [
        {
          "attributes": {
            "NORMAL": 9,
            "POSITION": 8,
            "TEXCOORD_0": 10
          },
          "indices": 11,
          "material": 2,
          "mode": 4
        }
      ]
    },
    {
      "name": "Body_Exhaust_0",
      "primitives": [
        {
          "attributes": {
            "NORMAL": 13,
            "POSITION": 12,
            "TEXCOORD_0": 14
          },
          "indices": 15,
          "material": 3,
          "mode": 4
        }
      ]
    },
    {
      "name": "Body_Plastic_0",
      "primitives": [
        {
          "attributes": {
            "NORMAL": 17,
            "POSITION": 16,
            "TEXCOORD_0": 18
          },
          "indices": 19,
          "material": 4,
          "mode": 4
        }
      ]
    },
    {
      "name": "Body_DayLights_0",
      "primitives": [
        {
          "attributes": {
            "NORMAL": 21,
            "POSITION": 20,
            "TEXCOORD_0": 22
          },
          "indices": 23,
          "material": 5,
          "mode": 4
        }
      ]
    },
    {
      "name": "Body_RedPart_0",
      "primitives": [
        {
          "attributes": {
            "NORMAL": 25,
            "POSITION": 24,
            "TEXCOORD_0": 26
          },
          "indices": 27,
          "material": 6,
          "mode": 4
        }
      ]
    },
    {
      "name": "Body_Window_0",
      "primitives": [
        {
          "attributes": {
            "NORMAL": 29,
            "POSITION": 28,
            "TEXCOORD_0": 30
          },
          "indices": 31,
          "material": 7,
          "mode": 4
        }
      ]
    },
    {
      "name": "Body_Mirror_0",
      "primitives": [
        {
          "attributes": {
            "NORMAL": 33,
            "POSITION": 32,
            "TEXCOORD_0": 34
          },
          "indices": 35,
          "material": 8,
          "mode": 4
        }
      ]
    },
    {
      "name": "Wheel_FL_Rims_0",
      "primitives": [
        {
          "attributes": {
            "NORMAL": 37,
            "POSITION": 36,
            "TEXCOORD_0": 38
          },
          "indices": 39,
          "material": 9,
          "mode": 4
        }
      ]
    },
    {
      "name": "Wheel_FL_Tires_0",
      "primitives": [
        {
          "attributes": {
            "NORMAL": 41,
            "POSITION": 40,
            "TEXCOORD_0": 42
          },
          "indices": 43,
          "material": 10,
          "mode": 4
        }
      ]
    },
    {
      "name": "Wheel_FR_Rims_0",
      "primitives": [
        {
          "attributes": {
            "NORMAL": 45,
            "POSITION": 44,
            "TEXCOORD_0": 46
          },
          "indices": 47,
          "material": 9,
          "mode": 4
        }
      ]
    },
    {
      "name": "Wheel_FR_Tires_0",
      "primitives": [
        {
          "attributes": {
            "NORMAL": 49,
            "POSITION": 48,
            "TEXCOORD_0": 50
          },
          "indices": 51,
          "material": 10,
          "mode": 4
        }
      ]
    },
    {
      "name": "Wheel_RL_Rims_0",
      "primitives": [
        {
          "attributes": {
            "NORMAL": 53,
            "POSITION": 52,
            "TEXCOORD_0": 54
          },
          "indices": 55,
          "material": 9,
          "mode": 4
        }
      ]
    },
    {
      "name": "Wheel_RL_Tires_0",
      "primitives": [
        {
          "attributes": {
            "NORMAL": 57,
            "POSITION": 56,
            "TEXCOORD_0": 58
          },
          "indices": 59,
          "material": 10,
          "mode": 4
        }
      ]
    },
    {
      "name": "Wheel_RR_Rims_0",
      "primitives": [
        {
          "attributes": {
            "NORMAL": 61,
            "POSITION": 60,
            "TEXCOORD_0": 62
          },
          "indices": 63,
          "material": 9,
          "mode": 4
        }
      ]
    },
    {
      "name": "Wheel_RR_Tires_0",
      "primitives": [
        {
          "attributes": {
            "NORMAL": 65,
            "POSITION": 64,
            "TEXCOORD_0": 66
          },
          "indices": 67,
          "material": 10,
          "mode": 4
        }
      ]
    },
    {
      "name": "Cylinder_Rims_0",
      "primitives": [
        {
          "attributes": {
            "NORMAL": 69,
            "POSITION": 68,
            "TEXCOORD_0": 70
          },
          "indices": 71,
          "material": 9,
          "mode": 4
        }
      ]
    },
    {
      "name": "Cylinder.001_Rims_0",
      "primitives": [
        {
          "attributes": {
            "NORMAL": 73,
            "POSITION": 72,
            "TEXCOORD_0": 74
          },
          "indices": 75,
          "material": 9,
          "mode": 4
        }
      ]
    }
  ],
  "nodes": [
    {
      "children": [
        1
      ],
      "matrix": [
        1.0,
        0.0,
        0.0,
        0.0,
        0.0,
        2.220446049250313e-16,
        -1.0,
        0.0,
        0.0,
        1.0,
        2.220446049250313e-16,
        0.0,
        0.0,
        0.0,
        0.0,
        1.0
      ],
      "name": "Sketchfab_model"
    },
    {
      "children": [
        2
      ],
      "matrix": [
        0.009999999776482582,
        0.0,
        0.0,
        0.0,
        0.0,
        0.0,
        0.009999999776482582,
        0.0,
        0.0,
        -0.009999999776482582,
        0.0,
        0.0,
        0.0,
        0.0,
        0.0,
        1.0
      ],
      "name": "91b714349d8a4d85aa5c76e8aa334b05.fbx"
    },
    {
      "children": [
        3,
        25,
        27
      ],
      "name": "RootNode"
    },
    {
      "children": [
        4,
        5,
        6,
        7,
        8,
        9,
        10,
        11,
        12,
        13,
        16,
        19,
        22
      ],
      "matrix": [
        100.0,
        0.0,
        0.0,
        0.0,
        0.0,
        -1.629206793918314e-05,
        -99.99999999999868,
        0.0,
        0.0,
        99.99999999999868,
        -1.629206793918314e-05,
        0.0,
        0.0,
        0.0,
        0.0,
        1.0
      ],
      "name": "Body"
    },
    {
      "mesh": 0,
      "name": "Body_CarPaint_0"
    },
    {
      "mesh": 1,
      "name": "Body_RearLight_0"
    },
    {
      "mesh": 2,
      "name": "Body_Transparent_0"
    },
    {
      "mesh": 3,
      "name": "Body_Exhaust_0"
    },
    {
      "mesh": 4,
      "name": "Body_Plastic_0"
    },
    {
      "mesh": 5,
      "name": "Body_DayLights_0"
    },
    {
      "mesh": 6,
      "name": "Body_RedPart_0"
    },
    {
      "mesh": 7,
      "name": "Body_Window_0"
    },
    {
      "mesh": 8,
      "name": "Body_Mirror_0"
    },
    {
      "children": [
        14,
        15
      ],
      "matrix": [
        0.9063078238885455,
        -0.4226181827115455,
        7.346839692639297e-40,
        0.0,
        0.4226181827115455,
        0.9063078238885455,
        2.646977960169687e-23,
        0.0,
        -1.1186610152044271e-23,
        -2.3989768349623303e-23,
        1.0,
        0.0,
        0.9281396269798279,
        -1.5359324216842651,
        0.3430253565311432,
        1.0
      ],
      "name": "Wheel_FL"
    },
    {
      "mesh": 9,
      "name": "Wheel_FL_Rims_0"
    },
    {
      "mesh": 10,
      "name": "Wheel_FL_Tires_0"
    },
    {
      "children": [
        17,
        18
      ],
      "matrix": [
        0.9063078238885455,
        -0.4226181827115455,
        7.346839692639297e-40,
        0.0,
        0.4226181827115455,
        0.9063078238885455,
        2.646977960169687e-23,
        0.0,
        -1.1186610152044271e-23,
        -2.3989768349623303e-23,
        1.0,
        0.0,
        -0.8801421523094177,
        -1.5357904434204102,
        0.342978835105896,
        1.0
      ],
      "name": "Wheel_FR"
    },
    {
      "mesh": 11,
      "name": "Wheel_FR_Rims_0"
    },
    {
      "mesh": 12,
      "name": "Wheel_FR_Tires_0"
    },
    {
      "children": [
        20,
        21
      ],
      "matrix": [
        1.0,
        0.0,
        0.0,
        0.0,
        0.0,
        1.0,
        -2.646977960169688e-23,
        0.0,
        0.0,
        2.646977960169688e-23,
        1.0,
        0.0,
        0.9281396269798279,
        1.300872802734375,
        0.3430253565311432,
        1.0
      ],
      "name": "Wheel_RL"
    },
    {
      "mesh": 13,
      "name": "Wheel_RL_Rims_0"
    },
    {
      "mesh": 14,
      "name": "Wheel_RL_Tires_0"
    },
    {
      "children": [
        23,
        24
      ],
      "matrix": [
        1.0,
        0.0,
        0.0,
        0.0,
        0.0,
        1.0,
        -2.646977960169688e-23,
        0.0,
        0.0,
        2.646977960169688e-23,
        1.0,
        0.0,
        -0.8801421523094177,
        1.3010146617889404,
        0.342978835105896,
        1.0
      ],
      "name": "Wheel_RR"
    },
    {
      "mesh": 15,
      "name": "Wheel_RR_Rims_0"
    },
    {
      "mesh": 16,
      "name": "Wheel_RR_Tires_0"
    },
    {
      "children": [
        26
      ],
      "matrix": [
        -2.1829038949837253e-06,
        -49.939018249511584,
        2.9765970883558293e-06,
        0.0,
        -8.136098925524481e-06,
        -2.9765967335177628e-06,
        -49.939018249510966,
        0.0,
        49.93901824951101,
        -2.1829043801138943e-06,
        -8.136098792460206e-06,
        0.0,
        0.0,
        34.30253601074219,
        153.65155029296875,
        1.0
      ],
      "name": "Cylinder"
    },
    {
      "mesh": 17,
      "name": "Cylinder_Rims_0"
    },
    {
      "children": [
        28
      ],
      "matrix": [
        -2.1829038949837253e-06,
        -49.939018249511584,
        2.9765970883558293e-06,
        0.0,
        -8.136098925524481e-06,
        -2.9765967335177628e-06,
        -49.939018249510966,
        0.0,
        49.93901824951101,
        -2.1829043801138943e-06,
        -8.136098792460206e-06,
        0.0,
        0.0,
        34.30253601074219,
        -130.02896118164063,
        1.0
      ],
      "name": "Cylinder.001"
    },
    {
      "mesh": 18,
      "name": "Cylinder.001_Rims_0"
    }
  ],
  "scene": 0,
  "scenes": [
    {
      "name": "Sketchfab_Scene",
      "nodes": [
        0
      ]
    }
  ]
}
