{
  "accessors": [
    {
      "bufferView": 2,
      "componentType": 5126,
      "count": 114,
      "max": [
        0.25919124484062195,
        0.34375,
        0.34375
      ],
      "min": [
        -0.11580874770879745,
        -0.34375,
        -0.34375
      ],
      "type": "VEC3"
    },
    {
      "bufferView": 2,
      "byteOffset": 1368,
      "componentType": 5126,
      "count": 114,
      "max": [
        1.0,
        1.0,
        1.0
      ],
      "min": [
        -1.0,
        -1.0,
        -1.0
      ],
      "type": "VEC3"
    },
    {
      "bufferView": 1,
      "componentType": 5126,
      "count": 114,
      "max": [
        0.6328125,
        0.640625
      ],
      "min": [
        0.1484375,
        0.1484375
      ],
      "type": "VEC2"
    },
    {
      "bufferView": 0,
      "componentType": 5125,
      "count": 192,
      "type": "SCALAR"
    },
    {
      "bufferView": 2,
      "byteOffset": 2736,
      "componentType": 5126,
      "count": 114,
      "max": [
        0.25919124484062195,
        0.34375,
        0.34375
      ],
      "min": [
        -0.11580874770879745,
        -0.34375,
        -0.34375
      ],
      "type": "VEC3"
    },
    {
      "bufferView": 2,
      "byteOffset": 4104,
      "componentType": 5126,
      "count": 114,
      "max": [
        1.0,
        1.0,
        1.0
      ],
      "min": [
        -1.0,
        -1.0,
        -1.0
      ],
      "type": "VEC3"
    },
    {
      "bufferView": 1,
      "byteOffset": 912,
      "componentType": 5126,
      "count": 114,
      "max": [
        0.6328125,
        0.640625
      ],
      "min": [
        0.1484375,
        0.1484375
      ],
      "type": "VEC2"
    },
    {
      "bufferView": 0,
      "byteOffset": 768,
      "componentType": 5125,
      "count": 192,
      "type": "SCALAR"
    },
    {
      "bufferView": 2,
      "byteOffset": 5472,
      "componentType": 5126,
      "count": 114,
      "max": [
        0.25919124484062195,
        0.34375,
        0.34375
      ],
      "min": [
        -0.11580874770879745,
        -0.34375,
        -0.34375
      ],
      "type": "VEC3"
    },
    {
      "bufferView": 2,
      "byteOffset": 6840,
      "componentType": 5126,
      "count": 114,
      "max": [
        1.0,
        1.0,
        1.0
      ],
      "min": [
        -1.0,
        -1.0,
        -1.0
      ],
      "type": "VEC3"
    },
    {
      "bufferView": 1,
      "byteOffset": 1824,
      "componentType": 5126,
      "count": 114,
      "max": [
        0.6328125,
        0.640625
      ],
      "min": [
        0.1484375,
        0.1484375
      ],
      "type": "VEC2"
    },
    {
      "bufferView": 0,
      "byteOffset": 1536,
      "componentType": 5125,
      "count": 192,
      "type": "SCALAR"
    },
    {
      "bufferView": 2,
      "byteOffset": 8208,
      "componentType": 5126,
      "count": 114,
      "max": [
        0.11580874770879745,
        0.34375,
        0.34375
      ],
      "min": [
        -0.25919124484062195,
        -0.34375,
        -0.34375
      ],
      "type": "VEC3"
    },
    {
      "bufferView": 2,
      "byteOffset": 9576,
      "componentType": 5126,
      "count": 114,
      "max": [
        1.0,
        1.0,
        1.0
      ],
      "min": [
        -1.0,
        -1.0,
        -1.0
      ],
      "type": "VEC3"
    },
    {
      "bufferView": 1,
      "byteOffset": 2736,
      "componentType": 5126,
      "count": 114,
      "max": [
        0.6328125,
        0.640625
      ],
      "min": [
        0.1484375,
        0.1484375
      ],
      "type": "VEC2"
    },
    {
      "bufferView": 0,
      "byteOffset": 2304,
      "componentType": 5125,
      "count": 192,
      "type": "SCALAR"
    },
    {
      "bufferView": 2,
      "byteOffset": 10944,
      "componentType": 5126,
      "count": 114,
      "max": [
        0.11580874770879745,
        0.34375,
        0.34375
      ],
      "min": [
        -0.25919124484062195,
        -0.34375,
        -0.34375
      ],
      "type": "VEC3"
    },
    {
      "bufferView": 2,
      "byteOffset": 12312,
      "componentType": 5126,
      "count": 114,
      "max": [
        1.0,
        1.0,
        1.0
      ],
      "min": [
        -1.0,
        -1.0,
        -1.0
      ],
      "type": "VEC3"
    },
    {
      "bufferView": 1,
      "byteOffset": 3648,
      "componentType": 5126,
      "count": 114,
      "max": [
        0.6328125,
        0.640625
      ],
      "min": [
        0.1484375,
        0.1484375
      ],
      "type": "VEC2"
    },
    {
      "bufferView": 0,
      "byteOffset": 3072,
      "componentType": 5125,
      "count": 192,
      "type": "SCALAR"
    },
    {
      "bufferView": 2,
      "byteOffset": 13680,
      "componentType": 5126,
      "count": 114,
      "max": [
        0.11580874770879745,
        0.34375,
        0.34375
      ],
      "min": [
        -0.25919124484062195,
        -0.34375,
        -0.34375
      ],
      "type": "VEC3"
    },
    {
      "bufferView": 2,
      "byteOffset": 15048,
      "componentType": 5126,
      "count": 114,
      "max": [
        1.0,
        1.0,
        1.0
      ],
      "min": [
        -1.0,
        -1.0,
        -1.0
      ],
      "type": "VEC3"
    },
    {
      "bufferView": 1,
      "byteOffset": 4560,
      "componentType": 5126,
      "count": 114,
      "max": [
        0.6328125,
        0.640625
      ],
      "min": [
        0.1484375,
        0.1484375
      ],
      "type": "VEC2"
    },
    {
      "bufferView": 0,
      "byteOffset": 3840,
      "componentType": 5125,
      "count": 192,
      "type": "SCALAR"
    },
    {
      "bufferView": 2,
      "byteOffset": 16416,
      "componentType": 5126,
      "count": 32,
      "max": [
        0.11021000146865845,
        0.90625,
        0.09375
      ],
      "min": [
        -0.11021000146865845,
        -0.90625,
        -0.11588124930858612
      ],
      "type": "VEC3"
    },
    {
      "bufferView": 2,
      "byteOffset": 16800,
      "componentType": 5126,
      "count": 32,
      "max": [
        0.9510554671287537,
        1.0,
        1.0
      ],
      "min": [
        -0.9510554671287537,
        -1.0,
        -0.8090183138847351
      ],
      "type": "VEC3"
    },
    {
      "bufferView": 1,
      "byteOffset": 5472,
      "componentType": 5126,
      "count": 32,
      "max": [
        0.296875,
        0.8046875
      ],
      "min": [
        0.0018484374741092324,
        0.2394210696220398
      ],
      "type": "VEC2"
    },
    {
      "bufferView": 0,
      "byteOffset": 4608,
      "componentType": 5125,
      "count": 60,
      "type": "SCALAR"
    },
    {
      "bufferView": 2,
      "byteOffset": 17184,
      "componentType": 5126,
      "count": 32,
      "max": [
        0.11021000146865845,
        0.90625,
        0.09375
      ],
      "min": [
        -0.11021000146865845,
        -0.90625,
        -0.11588124930858612
      ],
      "type": "VEC3"
    },
    {
      "bufferView": 2,
      "byteOffset": 17568,
      "componentType": 5126,
      "count": 32,
      "max": [
        0.9510554671287537,
        1.0,
        1.0
      ],
      "min": [
        -0.9510554671287537,
        -1.0,
        -0.8090183138847351
      ],
      "type": "VEC3"
    },
    {
      "bufferView": 1,
      "byteOffset": 5728,
      "componentType": 5126,
      "count": 32,
      "max": [
        0.296875,
        0.8046875
      ],
      "min": [
        0.0018484374741092324,
        0.2394210696220398
      ],
      "type": "VEC2"
    },
    {
      "bufferView": 0,
      "byteOffset": 4848,
      "componentType": 5125,
      "count": 60,
      "type": "SCALAR"
    },
    {
      "bufferView": 2,
      "byteOffset": 17952,
      "componentType": 5126,
      "count": 194,
      "max": [
        0.75,
        1.625,
        2.125
      ],
      "min": [
        -0.75,
        0.0,
        -1.5625
      ],
      "type": "VEC3"
    },
    {
      "bufferView": 2,
      "byteOffset": 20280,
      "componentType": 5126,
      "count": 194,
      "max": [
        1.0,
        1.0,
        1.0
      ],
      "min": [
        -1.0,
        -1.0,
        -1.0
      ],
      "type": "VEC3"
    },
    {
      "bufferView": 1,
      "byteOffset": 5984,
      "componentType": 5126,
      "count": 194,
      "max": [
        0.78125,
        0.671875
      ],
      "min": [
        0.0,
        0.0
      ],
      "type": "VEC2"
    },
    {
      "bufferView": 0,
      "byteOffset": 5088,
      "componentType": 5125,
      "count": 444,
      "type": "SCALAR"
    },
    {
      "bufferView": 2,
      "byteOffset": 22608,
      "componentType": 5126,
      "count": 38,
      "max": [
        0.226174995303154,
        0.3125,
        0.1875
      ],
      "min": [
        -0.226174995303154,
        -0.3125,
        -0.1875
      ],
      "type": "VEC3"
    },
    {
      "bufferView": 2,
      "byteOffset": 23064,
      "componentType": 5126,
      "count": 38,
      "max": [
        0.8563069105148315,
        1.0,
        1.0
      ],
      "min": [
        -0.8563069105148315,
        -1.0,
        -1.0
      ],
      "type": "VEC3"
    },
    {
      "bufferView": 1,
      "byteOffset": 7536,
      "componentType": 5126,
      "count": 38,
      "max": [
        0.5,
        0.65625
      ],
      "min": [
        0.1484375,
        0.1484375
      ],
      "type": "VEC2"
    },
    {
      "bufferView": 0,
      "byteOffset": 6864,
      "componentType": 5125,
      "count": 72,
      "type": "SCALAR"
    },
    {
      "bufferView": 2,
      "byteOffset": 23520,
      "componentType": 5126,
      "count": 48,
      "max": [
        0.25,
        0.1875,
        1.0625
      ],
      "min": [
        -0.25,
        -0.125,
        -0.6875
      ],
      "type": "VEC3"
    },
    {
      "bufferView": 2,
      "byteOffset": 24096,
      "componentType": 5126,
      "count": 48,
      "max": [
        1.0,
        1.0,
        1.0
      ],
      "min": [
        -1.0,
        -1.0,
        -1.0
      ],
      "type": "VEC3"
    },
    {
      "bufferView": 1,
      "byteOffset": 7840,
      "componentType": 5126,
      "count": 48,
      "max": [
        0.7421875,
        0.6875
      ],
      "min": [
        0.0,
        0.125
      ],
      "type": "VEC2"
    },
    {
      "bufferView": 0,
      "byteOffset": 7152,
      "componentType": 5125,
      "count": 84,
      "type": "SCALAR"
    },
    {
      "bufferView": 2,
      "byteOffset": 24672,
      "componentType": 5126,
      "count": 48,
      "max": [
        0.25,
        0.1875,
        1.0625
      ],
      "min": [
        -0.25,
        -0.125,
        -0.6875
      ],
      "type": "VEC3"
    },
    {
      "bufferView": 2,
      "byteOffset": 25248,
      "componentType": 5126,
      "count": 48,
      "max": [
        1.0,
        1.0,
        1.0
      ],
      "min": [
        -1.0,
        -1.0,
        -1.0
      ],
      "type": "VEC3"
    },
    {
      "bufferView": 1,
      "byteOffset": 8224,
      "componentType": 5126,
      "count": 48,
      "max": [
        0.7421875,
        0.6875
      ],
      "min": [
        0.0,
        0.125
      ],
      "type": "VEC2"
    },
    {
      "bufferView": 0,
      "byteOffset": 7488,
      "componentType": 5125,
      "count": 84,
      "type": "SCALAR"
    },
    {
      "bufferView": 2,
      "byteOffset": 25824,
      "componentType": 5126,
      "count": 38,
      "max": [
        0.226174995303154,
        0.3125,
        0.1875
      ],
      "min": [
        -0.226174995303154,
        -0.3125,
        -0.1875
      ],
      "type": "VEC3"
    },
    {
      "bufferView": 2,
      "byteOffset": 26280,
      "componentType": 5126,
      "count": 38,
      "max": [
        0.8563069105148315,
        1.0,
        1.0
      ],
      "min": [
        -0.8563069105148315,
        -1.0,
        -1.0
      ],
      "type": "VEC3"
    },
    {
      "bufferView": 1,
      "byteOffset": 8608,
      "componentType": 5126,
      "count": 38,
      "max": [
        0.5,
        0.65625
      ],
      "min": [
        0.1484375,
        0.1484375
      ],
      "type": "VEC2"
    },
    {
      "bufferView": 0,
      "byteOffset": 7824,
      "componentType": 5125,
      "count": 72,
      "type": "SCALAR"
    },
    {
      "bufferView": 3,
      "componentType": 5126,
      "count": 19,
      "max": [
        1.125
      ],
      "min": [
        0.0
      ],
      "type": "SCALAR"
    },
    {
      "bufferView": 5,
      "componentType": 5126,
      "count": 19,
      "max": [
        0.0,
        0.0,
        0.002166908234357834,
        1.0
      ],
      "min": [
        0.0,
        0.0,
        -0.0021733578760176897,
        0.999997615814209
      ],
      "type": "VEC4"
    },
    {
      "bufferView": 3,
      "byteOffset": 76,
      "componentType": 5126,
      "count": 19,
      "max": [
        1.125
      ],
      "min": [
        0.0
      ],
      "type": "SCALAR"
    },
    {
      "bufferView": 4,
      "componentType": 5126,
      "count": 19,
      "max": [
        0.0,
        0.28125,
        -0.219161257147789
      ],
      "min": [
        0.0,
        0.25,
        -0.219161257147789
      ],
      "type": "VEC3"
    },
    {
      "bufferView": 3,
      "byteOffset": 152,
      "componentType": 5126,
      "count": 19,
      "max": [
        1.125
      ],
      "min": [
        0.0
      ],
      "type": "SCALAR"
    },
    {
      "bufferView": 5,
      "byteOffset": 304,
      "componentType": 5126,
      "count": 19,
      "max": [
        0.0,
        0.002177968854084611,
        0.0,
        1.0
      ],
      "min": [
        0.0,
        -0.0021485155448317528,
        0.0,
        0.999997615814209
      ],
      "type": "VEC4"
    },
    {
      "bufferView": 3,
      "byteOffset": 228,
      "componentType": 5126,
      "count": 4,
      "max": [
        1.125
      ],
      "min": [
        0.0
      ],
      "type": "SCALAR"
    },
    {
      "bufferView": 5,
      "byteOffset": 608,
      "componentType": 5126,
      "count": 4,
      "max": [
        0.0,
        0.0,
        0.0,
        1.0
      ],
      "min": [
        -0.8660253882408142,
        0.0,
        0.0,
        -1.0
      ],
      "type": "VEC4"
    },
    {
      "bufferView": 3,
      "byteOffset": 244,
      "componentType": 5126,
      "count": 19,
      "max": [
        1.125
      ],
      "min": [
        0.0
      ],
      "type": "SCALAR"
    },
    {
      "bufferView": 5,
      "byteOffset": 672,
      "componentType": 5126,
      "count": 19,
      "max": [
        0.0,
        0.0,
        0.0038555513601750135,
        1.0
      ],
      "min": [
        0.0,
        0.0,
        -0.004363194108009338,
        0.9999904632568359
      ],
      "type": "VEC4"
    },
    {
      "bufferView": 3,
      "byteOffset": 320,
      "componentType": 5126,
      "count": 19,
      "max": [
        1.125
      ],
      "min": [
        0.0
      ],
      "type": "SCALAR"
    },
    {
      "bufferView": 4,
      "byteOffset": 228,
      "componentType": 5126,
      "count": 19,
      "max": [
        0.0,
        0.3125,
        -0.219161257147789
      ],
      "min": [
        0.0,
        0.25,
        -0.219161257147789
      ],
      "type": "VEC3"
    },
    {
      "bufferView": 3,
      "byteOffset": 396,
      "componentType": 5126,
      "count": 4,
      "max": [
        1.125
      ],
      "min": [
        0.0
      ],
      "type": "SCALAR"
    },
    {
      "bufferView": 5,
      "byteOffset": 976,
      "componentType": 5126,
      "count": 4,
      "max": [
        0.0,
        0.0,
        0.0,
        1.0
      ],
      "min": [
        -0.8660253882408142,
        0.0,
        0.0,
        -1.0
      ],
      "type": "VEC4"
    },
    {
      "bufferView": 3,
      "byteOffset": 412,
      "componentType": 5126,
      "count": 4,
      "max": [
        1.125
      ],
      "min": [
        0.0
      ],
      "type": "SCALAR"
    },
    {
      "bufferView": 5,
      "byteOffset": 1040,
      "componentType": 5126,
      "count": 4,
      "max": [
        0.0,
        0.0,
        0.0,
        1.0
      ],
      "min": [
        -0.8660253882408142,
        0.0,
        0.0,
        -1.0
      ],
      "type": "VEC4"
    },
    {
      "bufferView": 3,
      "byteOffset": 428,
      "componentType": 5126,
      "count": 4,
      "max": [
        1.125
      ],
      "min": [
        0.0
      ],
      "type": "SCALAR"
    },
    {
      "bufferView": 5,
      "byteOffset": 1104,
      "componentType": 5126,
      "count": 4,
      "max": [
        0.0,
        0.0,
        0.0,
        1.0
      ],
      "min": [
        -0.8660253882408142,
        0.0,
        0.0,
        -1.0
      ],
      "type": "VEC4"
    },
    {
      "bufferView": 3,
      "byteOffset": 444,
      "componentType": 5126,
      "count": 4,
      "max": [
        1.125
      ],
      "min": [
        0.0
      ],
      "type": "SCALAR"
    },
    {
      "bufferView": 5,
      "byteOffset": 1168,
      "componentType": 5126,
      "count": 4,
      "max": [
        0.0,
        0.0,
        0.0,
        1.0
      ],
      "min": [
        -0.8660253882408142,
        0.0,
        0.0,
        -1.0
      ],
      "type": "VEC4"
    },
    {
      "bufferView": 3,
      "byteOffset": 460,
      "componentType": 5126,
      "count": 4,
      "max": [
        1.125
      ],
      "min": [
        0.0
      ],
      "type": "SCALAR"
    },
    {
      "bufferView": 5,
      "byteOffset": 1232,
      "componentType": 5126,
      "count": 4,
      "max": [
        0.0,
        0.0,
        0.0,
        1.0
      ],
      "min": [
        -0.8660253882408142,
        0.0,
        0.0,
        -1.0
      ],
      "type": "VEC4"
    }
  ],
  "animations": [
    {
      "channels": [
        {
          "sampler": 0,
          "target": {
            "node": 23,
            "path": "rotation"
          }
        },
        {
          "sampler": 1,
          "target": {
            "node": 23,
            "path": "translation"
          }
        }
      ],
      "name": "animation.idle",
      "samplers": [
        {
          "input": 52,
          "interpolation": "LINEAR",
          "output": 53
        },
        {
          "input": 54,
          "interpolation": "LINEAR",
          "output": 55
        }
      ]
    },
    {
      "channels": [
        {
          "sampler": 0,
          "target": {
            "node": 3,
            "path": "rotation"
          }
        },
        {
          "sampler": 1,
          "target": {
            "node": 5,
            "path": "rotation"
          }
        },
        {
          "sampler": 2,
          "target": {
            "node": 23,
            "path": "rotation"
          }
        },
        {
          "sampler": 3,
          "target": {
            "node": 23,
            "path": "translation"
          }
        },
        {
          "sampler": 4,
          "target": {
            "node": 8,
            "path": "rotation"
          }
        },
        {
          "sampler": 5,
          "target": {
            "node": 11,
            "path": "rotation"
          }
        },
        {
          "sampler": 6,
          "target": {
            "node": 14,
            "path": "rotation"
          }
        },
        {
          "sampler": 7,
          "target": {
            "node": 17,
            "path": "rotation"
          }
        },
        {
          "sampler": 8,
          "target": {
            "node": 20,
            "path": "rotation"
          }
        }
      ],
      "name": "animation.driving",
      "samplers": [
        {
          "input": 56,
          "interpolation": "LINEAR",
          "output": 57
        },
        {
          "input": 58,
          "interpolation": "LINEAR",
          "output": 59
        },
        {
          "input": 60,
          "interpolation": "LINEAR",
          "output": 61
        },
        {
          "input": 62,
          "interpolation": "LINEAR",
          "output": 63
        },
        {
          "input": 64,
          "interpolation": "LINEAR",
          "output": 65
        },
        {
          "input": 66,
          "interpolation": "LINEAR",
          "output": 67
        },
        {
          "input": 68,
          "interpolation": "LINEAR",
          "output": 69
        },
        {
          "input": 70,
          "interpolation": "LINEAR",
          "output": 71
        },
        {
          "input": 72,
          "interpolation": "LINEAR",
          "output": 73
        }
      ]
    }
  ],
  "asset": {
    "extras": {
      "author": "Polyjo (https://sketchfab.com/polyjo)",
      "license": "CC-BY-NC-4.0 (http://creativecommons.org/licenses/by-nc/4.0/)",
      "source": "https://sketchfab.com/3d-models/white-low-poly-semi-truck-bb4cf0f9d2054ed0ab78eba03f56a5d7",
      "title": "White Low Poly Semi Truck"
    },
    "generator": "Sketchfab-0.3.0",
    "version": "2.0"
  },
  "bufferViews": [
    {
      "buffer": 0,
      "byteLength": 8112,
      "name": "floatBufferViews",
      "target": 34963
    },
    {
      "buffer": 0,
      "byteLength": 8912,
      "byteOffset": 8112,
      "byteStride": 8,
      "name": "floatBufferViews",
      "target": 34962
    },
    {
      "buffer": 0,
      "byteLength": 26736,
      "byteOffset": 17024,
      "byteStride": 12,
      "name": "floatBufferViews",
      "target": 34962
    },
    {
      "buffer": 0,
      "byteLength": 476,
      "byteOffset": 43760,
      "name": "floatBufferViews"
    },
    {
      "buffer": 0,
      "byteLength": 456,
      "byteOffset": 44236,
      "byteStride": 12,
      "name": "floatBufferViews"
    },
    {
      "buffer": 0,
      "byteLength": 1296,
      "byteOffset": 44692,
      "byteStride": 16,
      "name": "floatBufferViews"
    }
  ],
  "buffers": [
    {
      "byteLength": 45988,
      "uri": "scene.bin"
    }
  ],
  "images": [
    {
      "uri": "textures/material_0_baseColor.png"
    }
  ],
  "materials": [
    {
      "alphaCutoff": 0.05,
      "alphaMode": "MASK",
      "doubleSided": true,
      "name": "material_0",
      "pbrMetallicRoughness": {
        "baseColorTexture": {
          "index": 0
        },
        "metallicFactor": 0.0
      }
    }
  ],
  "meshes": [
    {
      "name": "Object_0",
      "primitives": [
        {
          "attributes": {
            "NORMAL": 1,
            "POSITION": 0,
            "TEXCOORD_0": 2
          },
          "indices": 3,
          "material": 0,
          "mode": 4
        }
      ]
    },
    {
      "name": "Object_1",
      "primitives": [
        {
          "attributes": {
            "NORMAL": 5,
            "POSITION": 4,
            "TEXCOORD_0": 6
          },
          "indices": 7,
          "material": 0,
          "mode": 4
        }
      ]
    },
    {
      "name": "Object_2",
      "primitives": [
        {
          "attributes": {
            "NORMAL": 9,
            "POSITION": 8,
            "TEXCOORD_0": 10
          },
          "indices": 11,
          "material": 0,
          "mode": 4
        }
      ]
    },
    {
      "name": "Object_3",
      "primitives": [
        {
          "attributes": {
            "NORMAL": 13,
            "POSITION": 12,
            "TEXCOORD_0": 14
          },
          "indices": 15,
          "material": 0,
          "mode": 4
        }
      ]
    },
    {
      "name": "Object_4",
      "primitives": [
        {
          "attributes": {
            "NORMAL": 17,
            "POSITION": 16,
            "TEXCOORD_0": 18
          },
          "indices": 19,
          "material": 0,
          "mode": 4
        }
      ]
    },
    {
      "name": "Object_5",
      "primitives": [
        {
          "attributes": {
            "NORMAL": 21,
            "POSITION": 20,
            "TEXCOORD_0": 22
          },
          "indices": 23,
          "material": 0,
          "mode": 4
        }
      ]
    },
    {
      "name": "Object_6",
      "primitives": [
        {
          "attributes": {
            "NORMAL": 25,
            "POSITION": 24,
            "TEXCOORD_0": 26
          },
          "indices": 27,
          "material": 0,
          "mode": 4
        }
      ]
    },
    {
      "name": "Object_7",
      "primitives": [
        {
          "attributes": {
            "NORMAL": 29,
            "POSITION": 28,
            "TEXCOORD_0": 30
          },
          "indices": 31,
          "material": 0,
          "mode": 4
        }
      ]
    },
    {
      "name": "Object_8",
      "primitives": [
        {
          "attributes": {
            "NORMAL": 33,
            "POSITION": 32,
            "TEXCOORD_0": 34
          },
          "indices": 35,
          "material": 0,
          "mode": 4
        }
      ]
    },
    {
      "name": "Object_9",
      "primitives": [
        {
          "attributes": {
            "NORMAL": 37,
            "POSITION": 36,
            "TEXCOORD_0": 38
          },
          "indices": 39,
          "material": 0,
          "mode": 4
        }
      ]
    },
    {
      "name": "Object_10",
      "primitives": [
        {
          "attributes": {
            "NORMAL": 41,
            "POSITION": 40,
            "TEXCOORD_0": 42
          },
          "indices": 43,
          "material": 0,
          "mode": 4
        }
      ]
    },
    {
      "name": "Object_11",
      "primitives": [
        {
          "attributes": {
            "NORMAL": 45,
            "POSITION": 44,
            "TEXCOORD_0": 46
          },
          "indices": 47,
          "material": 0,
          "mode": 4
        }
      ]
    },
    {
      "name": "Object_12",
      "primitives": [
        {
          "attributes": {
            "NORMAL": 49,
            "POSITION": 48,
            "TEXCOORD_0": 50
          },
          "indices": 51,
          "material": 0,
          "mode": 4
        }
      ]
    }
  ],
  "nodes": [
    {
      "children": [
        1
      ],
      "matrix": [
        -1.0,
        -6.290011496532519e-32,
        2.832769343193999e-16,
        0.0,
        2.832769343193999e-16,
        -2.220446049250313e-16,
        1.0,
        0.0,
        0.0,
        1.0,
        2.220446049250313e-16,
        0.0,
        0.0,
        0.0,
        0.0,
        1.0
      ],
      "name": "Sketchfab_model"
    },
    {
      "children": [
        2
      ],
      "name": "root"
    },
    {
      "children": [
        3
      ],
      "matrix": [
        1.0,
        0.0,
        0.0,
        0.0,
        0.0,
        2.220446049250313e-16,
        1.0,
        0.0,
        0.0,
        -1.0,
        2.220446049250313e-16,
        0.0,
        0.0,
        0.0,
        0.0,
        1.0
      ],
      "name": "GLTF_SceneRootNode"
    },
    {
      "children": [
        4,
        23
      ],
      "name": "root_23",
      "translation": [
        0.0,
        0.0,
        -0.25
      ]
    },
    {
      "children": [
        5,
        8,
        11,
        14,
        17,
        20
      ],
      "name": "wheels_12"
    },
    {
      "children": [
        6
      ],
      "name": "wheel_left_front_1",
      "translation": [
        -0.6341912746429443,
        0.34375,
        -0.981249988079071
      ]
    },
    {
      "children": [
        7
      ],
      "name": "wheel_0"
    },
    {
      "mesh": 0,
      "name": "Object_7"
    },
    {
      "children": [
        9
      ],
      "name": "wheel_left_middle_3",
      "translation": [
        -0.6341912746429443,
        0.34375,
        0.831250011920929
      ]
    },
    {
      "children": [
        10
      ],
      "name": "wheel_2"
    },
    {
      "mesh": 1,
      "name": "Object_10"
    },
    {
      "children": [
        12
      ],
      "name": "wheel_left_rear_5",
      "translation": [
        -0.6341912746429443,
        0.34375,
        1.6437499523162842
      ]
    },
    {
      "children": [
        13
      ],
      "name": "wheel_4"
    },
    {
      "mesh": 2,
      "name": "Object_13"
    },
    {
      "children": [
        15
      ],
      "name": "wheel_right_front_7",
      "translation": [
        0.6341912746429443,
        0.34375,
        -0.981249988079071
      ]
    },
    {
      "children": [
        16
      ],
      "name": "wheel_6"
    },
    {
      "mesh": 3,
      "name": "Object_16"
    },
    {
      "children": [
        18
      ],
      "name": "wheel_right_middle_9",
      "translation": [
        0.6341912746429443,
        0.34375,
        0.831250011920929
      ]
    },
    {
      "children": [
        19
      ],
      "name": "wheel_8"
    },
    {
      "mesh": 4,
      "name": "Object_19"
    },
    {
      "children": [
        21
      ],
      "name": "wheel_right_rear_11",
      "translation": [
        0.6341912746429443,
        0.34375,
        1.6437499523162842
      ]
    },
    {
      "children": [
        22
      ],
      "name": "wheel_10"
    },
    {
      "mesh": 5,
      "name": "Object_22"
    },
    {
      "children": [
        24,
        27,
        30,
        32,
        34,
        36,
        38
      ],
      "name": "body_22",
      "translation": [
        0.0,
        0.25,
        -0.219161257147789
      ]
    },
    {
      "children": [
        25
      ],
      "matrix": [
        1.0,
        0.0,
        0.0,
        0.0,
        0.0,
        1.0,
        0.0,
        0.0,
        0.0,
        0.0,
        1.0,
        0.0,
        0.5625,
        1.40625,
        0.0941612496972084,
        1.0
      ],
      "name": "right_smokestack_14"
    },
    {
      "children": [
        26
      ],
      "name": "smokestack_13"
    },
    {
      "mesh": 6,
      "name": "Object_26"
    },
    {
      "children": [
        28
      ],
      "matrix": [
        1.0,
        0.0,
        0.0,
        0.0,
        0.0,
        1.0,
        0.0,
        0.0,
        0.0,
        0.0,
        1.0,
        0.0,
        -0.5625,
        1.40625,
        0.0941612496972084,
        1.0
      ],
      "name": "left_smokestack_16"
    },
    {
      "children": [
        29
      ],
      "name": "smokestack_15"
    },
    {
      "mesh": 7,
      "name": "Object_29"
    },
    {
      "children": [
        31
      ],
      "name": "body_17"
    },
    {
      "mesh": 8,
      "name": "Object_31"
    },
    {
      "children": [
        33
      ],
      "matrix": [
        1.0,
        0.0,
        0.0,
        0.0,
        0.0,
        0.0,
        1.0,
        0.0,
        0.0,
        -1.0,
        0.0,
        0.0,
        -0.48750001192092896,
        0.25,
        0.3441612422466278,
        1.0
      ],
      "name": "oil_tank_18"
    },
    {
      "mesh": 9,
      "name": "Object_33"
    },
    {
      "children": [
        35
      ],
      "matrix": [
        1.0,
        0.0,
        0.0,
        0.0,
        0.0,
        1.0,
        0.0,
        0.0,
        0.0,
        0.0,
        1.0,
        0.0,
        -0.5625,
        0.4749999940395355,
        1.3691612482070923,
        1.0
      ],
      "name": "wheel_rims_19"
    },
    {
      "mesh": 10,
      "name": "Object_35"
    },
    {
      "children": [
        37
      ],
      "matrix": [
        1.0,
        0.0,
        0.0,
        0.0,
        0.0,
        1.0,
        0.0,
        0.0,
        0.0,
        0.0,
        1.0,
        0.0,
        0.5625,
        0.4749999940395355,
        1.3691612482070923,
        1.0
      ],
      "name": "wheel_rims_20"
    },
    {
      "mesh": 11,
      "name": "Object_37"
    },
    {
      "children": [
        39
      ],
      "matrix": [
        1.0,
        0.0,
        0.0,
        0.0,
        0.0,
        0.0,
        1.0,
        0.0,
        0.0,
        -1.0,
        0.0,
        0.0,
        0.48750001192092896,
        0.25,
        0.3441612422466278,
        1.0
      ],
      "name": "oil_tank_21"
    },
    {
      "mesh": 12,
      "name": "Object_39"
    }
  ],
  "samplers": [
    {
      "magFilter": 9728,
      "minFilter": 9728,
      "wrapS": 33071,
      "wrapT": 33071
    }
  ],
  "scene": 0,
  "scenes": [
    {
      "name": "Sketchfab_Scene",
      "nodes": [
        0
      ]
    }
  ],
  "textures": [
    {
      "sampler": 0,
      "source": 0
    }
  ]
}
