{
  "accessors": [
    {
      "bufferView": 3,
      "componentType": 5126,
      "count": 715,
      "max": [
        40.2487907409668,
        141.0211944580078,
        146.5530548095703
      ],
      "min": [
        -51.711185455322266,
        1.1158047914505005,
        -80.58894348144531
      ],
      "type": "VEC3"
    },
    {
      "bufferView": 3,
      "byteOffset": 8580,
      "componentType": 5126,
      "count": 715,
      "max": [
        0.9989303946495056,
        0.999914288520813,
        0.9997422099113464
      ],
      "min": [
        -0.9976403713226318,
        -0.9966979622840881,
        -0.9998073577880859
      ],
      "type": "VEC3"
    },
    {
      "bufferView": 2,
      "componentType": 5126,
      "count": 715,
      "max": [
        0.2536385655403137,
        0.9975515604019165
      ],
      "min": [
        0.00418635131791234,
        0.7480990886688232
      ],
      "type": "VEC2"
    },
    {
      "bufferView": 1,
      "componentType": 5125,
      "count": 3306,
      "type": "SCALAR"
    },
    {
      "bufferView": 5,
      "componentType": 5126,
      "count": 28,
      "max": [
        1.0,
        0.26051101088523865,
        1.0,
        0.0,
        0.7005326151847839,
        1.0,
        0.27539607882499695,
        0.0,
        0.9897540211677551,
        0.9900839924812317,
        1.0,
        0.0,
        113.49677276611328,
        71.68586730957031,
        75.51275634765625,
        1.0
      ],
      "min": [
        -0.13919423520565033,
        -0.2481859028339386,
        -1.0,
        0.0,
        -0.9893649816513062,
        -0.9997479915618896,
        -0.9867870211601257,
        0.0,
        -0.9816920161247253,
        -0.9919509887695313,
        -0.9994180202484131,
        0.0,
        -102.94577026367188,
        -137.76161193847656,
        -28.842891693115234,
        1.0
      ],
      "type": "MAT4"
    },
    {
      "bufferView": 0,
      "componentType": 5123,
      "count": 715,
      "type": "VEC4"
    },
    {
      "bufferView": 4,
      "componentType": 5126,
      "count": 715,
      "max": [
        1.0,
        0.5,
        0.270326167345047,
        0.07701180875301361
      ],
      "min": [
        0.3715835511684418,
        0.0,
        0.0,
        0.0
      ],
      "type": "VEC4"
    },
    {
      "bufferView": 6,
      "componentType": 5126,
      "count": 193,
      "max": [
        4.166666507720947
      ],
      "min": [
        0.0
      ],
      "type": "SCALAR"
    },
    {
      "bufferView": 7,
      "componentType": 5126,
      "count": 193,
      "max": [
        26.08688735961914,
        2.842170943040401e-14,
        1.4210854715202004e-14
      ],
      "min": [
        26.08688735961914,
        -2.842170943040401e-14,
        -5.684341886080802e-14
      ],
      "type": "VEC3"
    },
    {
      "bufferView": 6,
      "byteOffset": 772,
      "componentType": 5126,
      "count": 201,
      "max": [
        4.166666507720947
      ],
      "min": [
        0.0
      ],
      "type": "SCALAR"
    },
    {
      "bufferView": 8,
      "componentType": 5126,
      "count": 201,
      "max": [
        -0.3263632655143738,
        0.6328343152999878,
        0.5597665309906006,
        0.6222894787788391
      ],
      "min": [
        -0.518200159072876,
        0.4953554570674896,
        0.3148144781589508,
        0.42430931329727173
      ],
      "type": "VEC4"
    },
    {
      "bufferView": 6,
      "byteOffset": 1576,
      "componentType": 5126,
      "count": 195,
      "max": [
        4.166666507720947
      ],
      "min": [
        0.0
      ],
      "type": "SCALAR"
    },
    {
      "bufferView": 7,
      "byteOffset": 2316,
      "componentType": 5126,
      "count": 195,
      "max": [
        24.494352340698242,
        2.842170943040401e-14,
        1.4210854715202004e-14
      ],
      "min": [
        24.494352340698242,
        -2.842170943040401e-14,
        -7.105427357601002e-15
      ],
      "type": "VEC3"
    },
    {
      "bufferView": 6,
      "byteOffset": 2356,
      "componentType": 5126,
      "count": 201,
      "max": [
        4.166666507720947
      ],
      "min": [
        0.0
      ],
      "type": "SCALAR"
    },
    {
      "bufferView": 8,
      "byteOffset": 3216,
      "componentType": 5126,
      "count": 201,
      "max": [
        0.9902223348617554,
        0.2711317241191864,
        0.21987755596637726,
        0.14145368337631226
      ],
      "min": [
        0.9446182250976563,
        -0.2149215191602707,
        -0.1659340262413025,
        0.003019465832039714
      ],
      "type": "VEC4"
    },
    {
      "bufferView": 6,
      "byteOffset": 3160,
      "componentType": 5126,
      "count": 183,
      "max": [
        4.166666507720947
      ],
      "min": [
        0.0
      ],
      "type": "SCALAR"
    },
    {
      "bufferView": 7,
      "byteOffset": 4656,
      "componentType": 5126,
      "count": 183,
      "max": [
        22.219202041625977,
        2.842170943040401e-14,
        4.440892098500626e-16
      ],
      "min": [
        22.219202041625977,
        -2.842170943040401e-14,
        -1.021405182655144e-14
      ],
      "type": "VEC3"
    },
    {
      "bufferView": 6,
      "byteOffset": 3892,
      "componentType": 5126,
      "count": 201,
      "max": [
        4.166666507720947
      ],
      "min": [
        0.0
      ],
      "type": "SCALAR"
    },
    {
      "bufferView": 8,
      "byteOffset": 6432,
      "componentType": 5126,
      "count": 201,
      "max": [
        0.10924946516752243,
        0.12318655848503113,
        0.4318123459815979,
        0.9932501316070557
      ],
      "min": [
        -0.1642536222934723,
        -0.14617638289928436,
        -0.5090377330780029,
        0.8382660746574402
      ],
      "type": "VEC4"
    },
    {
      "bufferView": 6,
      "byteOffset": 4696,
      "componentType": 5126,
      "count": 192,
      "max": [
        4.166666507720947
      ],
      "min": [
        0.0
      ],
      "type": "SCALAR"
    },
    {
      "bufferView": 7,
      "byteOffset": 6852,
      "componentType": 5126,
      "count": 192,
      "max": [
        13.746819496154785,
        2.1316282072803006e-14,
        7.105427357601002e-15
      ],
      "min": [
        13.746819496154785,
        -7.105427357601002e-15,
        -7.105427357601002e-15
      ],
      "type": "VEC3"
    },
    {
      "bufferView": 6,
      "byteOffset": 5464,
      "componentType": 5126,
      "count": 178,
      "max": [
        4.166666507720947
      ],
      "min": [
        0.0
      ],
      "type": "SCALAR"
    },
    {
      "bufferView": 8,
      "byteOffset": 9648,
      "componentType": 5126,
      "count": 178,
      "max": [
        -0.3560737073421478,
        0.5488928556442261,
        0.41157811880111694,
        0.6344537734985352
      ],
      "min": [
        -0.3560737073421478,
        0.5488928556442261,
        0.41157811880111694,
        0.6344537734985352
      ],
      "type": "VEC4"
    },
    {
      "bufferView": 6,
      "byteOffset": 6176,
      "componentType": 5126,
      "count": 201,
      "max": [
        4.166666507720947
      ],
      "min": [
        0.0
      ],
      "type": "SCALAR"
    },
    {
      "bufferView": 7,
      "byteOffset": 9156,
      "componentType": 5126,
      "count": 201,
      "max": [
        29.384700775146484,
        7.105427357601002e-15,
        1.4210854715202004e-14
      ],
      "min": [
        29.384700775146484,
        -1.4210854715202004e-14,
        -7.105427357601002e-15
      ],
      "type": "VEC3"
    },
    {
      "bufferView": 6,
      "byteOffset": 6980,
      "componentType": 5126,
      "count": 201,
      "max": [
        4.166666507720947
      ],
      "min": [
        0.0
      ],
      "type": "SCALAR"
    },
    {
      "bufferView": 8,
      "byteOffset": 12496,
      "componentType": 5126,
      "count": 201,
      "max": [
        -0.06527125090360641,
        0.04521210491657257,
        0.3974878191947937,
        0.9970563054084778
      ],
      "min": [
        -0.08229047805070877,
        -0.01239826437085867,
        -0.4469931125640869,
        0.8909519910812378
      ],
      "type": "VEC4"
    },
    {
      "bufferView": 6,
      "byteOffset": 7784,
      "componentType": 5126,
      "count": 196,
      "max": [
        4.166666507720947
      ],
      "min": [
        0.0
      ],
      "type": "SCALAR"
    },
    {
      "bufferView": 7,
      "byteOffset": 11568,
      "componentType": 5126,
      "count": 196,
      "max": [
        35.34657669067383,
        1.4210854715202004e-14,
        7.105427357601002e-15
      ],
      "min": [
        35.34657669067383,
        -2.842170943040401e-14,
        -1.0658141036401503e-14
      ],
      "type": "VEC3"
    },
    {
      "bufferView": 6,
      "byteOffset": 8568,
      "componentType": 5126,
      "count": 201,
      "max": [
        4.166666507720947
      ],
      "min": [
        0.0
      ],
      "type": "SCALAR"
    },
    {
      "bufferView": 8,
      "byteOffset": 15712,
      "componentType": 5126,
      "count": 201,
      "max": [
        1.0,
        -1.7725122347655997e-07,
        4.780953497082592e-19,
        8.007938157103821e-17
      ],
      "min": [
        0.7563920617103577,
        -0.654118537902832,
        -3.165871336274408e-17,
        5.631205397011127e-17
      ],
      "type": "VEC4"
    },
    {
      "bufferView": 6,
      "byteOffset": 9372,
      "componentType": 5126,
      "count": 201,
      "max": [
        4.166666507720947
      ],
      "min": [
        0.0
      ],
      "type": "SCALAR"
    },
    {
      "bufferView": 8,
      "byteOffset": 18928,
      "componentType": 5126,
      "count": 201,
      "max": [
        -0.006605126895010471,
        -0.008173447102308273,
        -0.36140015721321106,
        0.932324230670929
      ],
      "min": [
        -0.019335560500621796,
        -0.02395656146109104,
        -0.7173945903778076,
        0.6962149739265442
      ],
      "type": "VEC4"
    },
    {
      "bufferView": 6,
      "byteOffset": 10176,
      "componentType": 5126,
      "count": 197,
      "max": [
        4.166666507720947
      ],
      "min": [
        0.0
      ],
      "type": "SCALAR"
    },
    {
      "bufferView": 7,
      "byteOffset": 13920,
      "componentType": 5126,
      "count": 197,
      "max": [
        13.74682331085205,
        1.4210854715202004e-14,
        1.4210854715202004e-14
      ],
      "min": [
        13.74682331085205,
        -1.4210854715202004e-14,
        -1.4210854715202004e-14
      ],
      "type": "VEC3"
    },
    {
      "bufferView": 6,
      "byteOffset": 10964,
      "componentType": 5126,
      "count": 161,
      "max": [
        4.166666507720947
      ],
      "min": [
        0.0
      ],
      "type": "SCALAR"
    },
    {
      "bufferView": 8,
      "byteOffset": 22144,
      "componentType": 5126,
      "count": 161,
      "max": [
        -0.5488927364349365,
        -0.35607343912124634,
        0.634454071521759,
        -0.41157811880111694
      ],
      "min": [
        -0.5488927364349365,
        -0.35607343912124634,
        0.634454071521759,
        -0.41157811880111694
      ],
      "type": "VEC4"
    },
    {
      "bufferView": 6,
      "byteOffset": 11608,
      "componentType": 5126,
      "count": 190,
      "max": [
        4.166666507720947
      ],
      "min": [
        0.0
      ],
      "type": "SCALAR"
    },
    {
      "bufferView": 7,
      "byteOffset": 16284,
      "componentType": 5126,
      "count": 190,
      "max": [
        29.384750366210938,
        2.842170943040401e-14,
        1.0658141036401503e-14
      ],
      "min": [
        29.384750366210938,
        -1.4210854715202004e-14,
        -7.105427357601002e-15
      ],
      "type": "VEC3"
    },
    {
      "bufferView": 6,
      "byteOffset": 12368,
      "componentType": 5126,
      "count": 201,
      "max": [
        4.166666507720947
      ],
      "min": [
        0.0
      ],
      "type": "SCALAR"
    },
    {
      "bufferView": 8,
      "byteOffset": 24720,
      "componentType": 5126,
      "count": 201,
      "max": [
        0.903981626033783,
        0.6731926202774048,
        0.6170878410339355,
        0.9967986941337585
      ],
      "min": [
        -0.6316847801208496,
        -0.6646105647087097,
        -0.6500431299209595,
        -0.4661845266819
      ],
      "type": "VEC4"
    },
    {
      "bufferView": 6,
      "byteOffset": 13172,
      "componentType": 5126,
      "count": 197,
      "max": [
        4.166666507720947
      ],
      "min": [
        0.0
      ],
      "type": "SCALAR"
    },
    {
      "bufferView": 7,
      "byteOffset": 18564,
      "componentType": 5126,
      "count": 197,
      "max": [
        35.346561431884766,
        2.1316282072803006e-14,
        7.105427357601002e-15
      ],
      "min": [
        35.346561431884766,
        -4.263256414560601e-14,
        -1.4210854715202004e-14
      ],
      "type": "VEC3"
    },
    {
      "bufferView": 6,
      "byteOffset": 13960,
      "componentType": 5126,
      "count": 201,
      "max": [
        4.166666507720947
      ],
      "min": [
        0.0
      ],
      "type": "SCALAR"
    },
    {
      "bufferView": 8,
      "byteOffset": 27936,
      "componentType": 5126,
      "count": 201,
      "max": [
        1.0,
        0.9439541697502136,
        9.477818087839727e-18,
        8.050592221698485e-17
      ],
      "min": [
        -0.7018563151359558,
        -0.6999825835227966,
        -8.339822871194797e-17,
        -8.320613090393356e-17
      ],
      "type": "VEC4"
    },
    {
      "bufferView": 6,
      "byteOffset": 14764,
      "componentType": 5126,
      "count": 82,
      "max": [
        4.166666507720947
      ],
      "min": [
        0.0
      ],
      "type": "SCALAR"
    },
    {
      "bufferView": 7,
      "byteOffset": 20928,
      "componentType": 5126,
      "count": 82,
      "max": [
        20.11341094970703,
        -56.82423782348633,
        -18.574390411376953
      ],
      "min": [
        -8.283001899719238,
        -62.333927154541016,
        -18.621841430664063
      ],
      "type": "VEC3"
    },
    {
      "bufferView": 6,
      "byteOffset": 15092,
      "componentType": 5126,
      "count": 201,
      "max": [
        4.166666507720947
      ],
      "min": [
        0.0
      ],
      "type": "SCALAR"
    },
    {
      "bufferView": 8,
      "byteOffset": 31152,
      "componentType": 5126,
      "count": 201,
      "max": [
        0.09179626405239105,
        0.045169081538915634,
        0.39283487200737,
        0.9999616742134094
      ],
      "min": [
        -0.019335562363266945,
        -0.022021140903234482,
        -0.7243795394897461,
        0.6883150935173035
      ],
      "type": "VEC4"
    },
    {
      "bufferView": 6,
      "byteOffset": 15896,
      "componentType": 5126,
      "count": 201,
      "max": [
        4.166666507720947
      ],
      "min": [
        0.0
      ],
      "type": "SCALAR"
    },
    {
      "bufferView": 8,
      "byteOffset": 34368,
      "componentType": 5126,
      "count": 201,
      "max": [
        0.00871252827346325,
        0.7078075408935547,
        -0.00840285699814558,
        0.7063016295433044
      ],
      "min": [
        0.00871252827346325,
        0.7078075408935547,
        -0.00840285699814558,
        0.7063016295433044
      ],
      "type": "VEC4"
    },
    {
      "bufferView": 6,
      "byteOffset": 16700,
      "componentType": 5126,
      "count": 171,
      "max": [
        4.166666507720947
      ],
      "min": [
        0.0
      ],
      "type": "SCALAR"
    },
    {
      "bufferView": 7,
      "byteOffset": 21912,
      "componentType": 5126,
      "count": 171,
      "max": [
        37.370872497558594,
        -0.5436109304428101,
        1.4210854715202004e-14
      ],
      "min": [
        37.370872497558594,
        -0.5436109304428101,
        -1.5987211554602254e-14
      ],
      "type": "VEC3"
    },
    {
      "bufferView": 6,
      "byteOffset": 17384,
      "componentType": 5126,
      "count": 201,
      "max": [
        4.166666507720947
      ],
      "min": [
        0.0
      ],
      "type": "SCALAR"
    },
    {
      "bufferView": 8,
      "byteOffset": 37584,
      "componentType": 5126,
      "count": 201,
      "max": [
        0.15190601348876953,
        0.07657408714294434,
        -0.15115423500537872,
        0.9789379239082336
      ],
      "min": [
        -0.00797792337834835,
        -0.5851445198059082,
        -0.3764171898365021,
        0.7837937474250793
      ],
      "type": "VEC4"
    },
    {
      "bufferView": 6,
      "byteOffset": 18188,
      "componentType": 5126,
      "count": 177,
      "max": [
        4.166666507720947
      ],
      "min": [
        0.0
      ],
      "type": "SCALAR"
    },
    {
      "bufferView": 7,
      "byteOffset": 23964,
      "componentType": 5126,
      "count": 177,
      "max": [
        41.831748962402344,
        2.842170943040401e-14,
        3.552713678800501e-15
      ],
      "min": [
        41.831748962402344,
        -2.842170943040401e-14,
        -3.552713678800501e-15
      ],
      "type": "VEC3"
    },
    {
      "bufferView": 6,
      "byteOffset": 18896,
      "componentType": 5126,
      "count": 84,
      "max": [
        4.166666507720947
      ],
      "min": [
        0.0
      ],
      "type": "SCALAR"
    },
    {
      "bufferView": 8,
      "byteOffset": 40800,
      "componentType": 5126,
      "count": 84,
      "max": [
        0.27115577459335327,
        0.0008793483721092343,
        0.7712007164955139,
        0.9629968404769897
      ],
      "min": [
        0.017423739656805992,
        -0.3781319558620453,
        0.24035564064979553,
        0.6362578272819519
      ],
      "type": "VEC4"
    },
    {
      "bufferView": 6,
      "byteOffset": 19232,
      "componentType": 5126,
      "count": 195,
      "max": [
        4.166666507720947
      ],
      "min": [
        0.0
      ],
      "type": "SCALAR"
    },
    {
      "bufferView": 7,
      "byteOffset": 26088,
      "componentType": 5126,
      "count": 195,
      "max": [
        12.473179817199707,
        1.4210854715202004e-14,
        7.105427357601002e-15
      ],
      "min": [
        12.473179817199707,
        -1.4210854715202004e-14,
        -7.105427357601002e-15
      ],
      "type": "VEC3"
    },
    {
      "bufferView": 6,
      "byteOffset": 20012,
      "componentType": 5126,
      "count": 193,
      "max": [
        4.166666507720947
      ],
      "min": [
        0.0
      ],
      "type": "SCALAR"
    },
    {
      "bufferView": 8,
      "byteOffset": 42144,
      "componentType": 5126,
      "count": 193,
      "max": [
        -0.34881824254989624,
        0.5283364653587341,
        0.42649006843566895,
        0.6459819078445435
      ],
      "min": [
        -0.34881824254989624,
        0.5283364653587341,
        0.42649006843566895,
        0.6459819078445435
      ],
      "type": "VEC4"
    },
    {
      "bufferView": 6,
      "byteOffset": 20784,
      "componentType": 5126,
      "count": 160,
      "max": [
        4.166666507720947
      ],
      "min": [
        0.0
      ],
      "type": "SCALAR"
    },
    {
      "bufferView": 7,
      "byteOffset": 28428,
      "componentType": 5126,
      "count": 160,
      "max": [
        23.146955490112305,
        7.105427357601002e-15,
        -4.990283741790336e-10
      ],
      "min": [
        23.146955490112305,
        -1.4210854715202004e-14,
        -4.990425850337488e-10
      ],
      "type": "VEC3"
    },
    {
      "bufferView": 6,
      "byteOffset": 21424,
      "componentType": 5126,
      "count": 175,
      "max": [
        4.166666507720947
      ],
      "min": [
        0.0
      ],
      "type": "SCALAR"
    },
    {
      "bufferView": 8,
      "byteOffset": 45232,
      "componentType": 5126,
      "count": 175,
      "max": [
        0.009096396155655384,
        0.02663303352892399,
        0.3800278306007385,
        0.9996428489685059
      ],
      "min": [
        -0.07620314508676529,
        -0.06341289728879929,
        -0.4792371690273285,
        0.8730838298797607
      ],
      "type": "VEC4"
    },
    {
      "bufferView": 6,
      "byteOffset": 22124,
      "componentType": 5126,
      "count": 199,
      "max": [
        4.166666507720947
      ],
      "min": [
        0.0
      ],
      "type": "SCALAR"
    },
    {
      "bufferView": 7,
      "byteOffset": 30348,
      "componentType": 5126,
      "count": 199,
      "max": [
        26.482833862304688,
        7.105427357601002e-15,
        -8.537515583384447e-09
      ],
      "min": [
        26.482833862304688,
        -1.4210854715202004e-14,
        -8.537529794239163e-09
      ],
      "type": "VEC3"
    },
    {
      "bufferView": 6,
      "byteOffset": 22920,
      "componentType": 5126,
      "count": 201,
      "max": [
        4.166666507720947
      ],
      "min": [
        0.0
      ],
      "type": "SCALAR"
    },
    {
      "bufferView": 8,
      "byteOffset": 48032,
      "componentType": 5126,
      "count": 201,
      "max": [
        1.0,
        -2.887060475131875e-07,
        1.0028239902978159e-13,
        -5.847298556807545e-13
      ],
      "min": [
        0.7408900856971741,
        -0.6716262698173523,
        -3.947212836533792e-13,
        -7.055795292650047e-13
      ],
      "type": "VEC4"
    },
    {
      "bufferView": 6,
      "byteOffset": 23724,
      "componentType": 5126,
      "count": 201,
      "max": [
        4.166666507720947
      ],
      "min": [
        0.0
      ],
      "type": "SCALAR"
    },
    {
      "bufferView": 8,
      "byteOffset": 51248,
      "componentType": 5126,
      "count": 201,
      "max": [
        0.9801821112632751,
        0.18845456838607788,
        -0.014181640930473804,
        0.16364455223083496
      ],
      "min": [
        0.8334735631942749,
        -0.5247714519500732,
        -0.20444075763225555,
        -0.005367646459490061
      ],
      "type": "VEC4"
    },
    {
      "bufferView": 6,
      "byteOffset": 24528,
      "componentType": 5126,
      "count": 201,
      "max": [
        4.166666507720947
      ],
      "min": [
        0.0
      ],
      "type": "SCALAR"
    },
    {
      "bufferView": 7,
      "byteOffset": 32736,
      "componentType": 5126,
      "count": 201,
      "max": [
        12.473183631896973,
        1.4210854715202004e-14,
        5.3290705182007514e-15
      ],
      "min": [
        12.473183631896973,
        -1.4210854715202004e-14,
        -7.105427357601002e-15
      ],
      "type": "VEC3"
    },
    {
      "bufferView": 6,
      "byteOffset": 25332,
      "componentType": 5126,
      "count": 195,
      "max": [
        4.166666507720947
      ],
      "min": [
        0.0
      ],
      "type": "SCALAR"
    },
    {
      "bufferView": 8,
      "byteOffset": 54464,
      "componentType": 5126,
      "count": 195,
      "max": [
        -0.5283343195915222,
        -0.3488161563873291,
        0.6459842920303345,
        -0.426490843296051
      ],
      "min": [
        -0.5283343195915222,
        -0.3488161563873291,
        0.6459842920303345,
        -0.426490843296051
      ],
      "type": "VEC4"
    },
    {
      "bufferView": 6,
      "byteOffset": 26112,
      "componentType": 5126,
      "count": 191,
      "max": [
        4.166666507720947
      ],
      "min": [
        0.0
      ],
      "type": "SCALAR"
    },
    {
      "bufferView": 7,
      "byteOffset": 35148,
      "componentType": 5126,
      "count": 191,
      "max": [
        23.146955490112305,
        1.4210854715202004e-14,
        -4.990354796063912e-10
      ],
      "min": [
        23.146955490112305,
        -1.4210854715202004e-14,
        -4.990496904611064e-10
      ],
      "type": "VEC3"
    },
    {
      "bufferView": 6,
      "byteOffset": 26876,
      "componentType": 5126,
      "count": 201,
      "max": [
        4.166666507720947
      ],
      "min": [
        0.0
      ],
      "type": "SCALAR"
    },
    {
      "bufferView": 8,
      "byteOffset": 57584,
      "componentType": 5126,
      "count": 201,
      "max": [
        0.09951290488243103,
        -0.023550618439912796,
        0.4030085504055023,
        0.9941210150718689
      ],
      "min": [
        -0.020504985004663467,
        -0.13856829702854156,
        -0.4872645139694214,
        0.8628770112991333
      ],
      "type": "VEC4"
    },
    {
      "bufferView": 6,
      "byteOffset": 27680,
      "componentType": 5126,
      "count": 193,
      "max": [
        4.166666507720947
      ],
      "min": [
        0.0
      ],
      "type": "SCALAR"
    },
    {
      "bufferView": 7,
      "byteOffset": 37440,
      "componentType": 5126,
      "count": 193,
      "max": [
        26.482797622680664,
        1.4210854715202004e-14,
        -8.537512030670769e-09
      ],
      "min": [
        26.482797622680664,
        -1.4210854715202004e-14,
        -8.537526241525484e-09
      ],
      "type": "VEC3"
    },
    {
      "bufferView": 6,
      "byteOffset": 28452,
      "componentType": 5126,
      "count": 201,
      "max": [
        4.166666507720947
      ],
      "min": [
        0.0
      ],
      "type": "SCALAR"
    },
    {
      "bufferView": 8,
      "byteOffset": 60800,
      "componentType": 5126,
      "count": 201,
      "max": [
        1.0,
        -2.8378508432069793e-07,
        1.0027675440222109e-13,
        -5.714965718543741e-13
      ],
      "min": [
        0.7186439633369446,
        -0.6953781843185425,
        -4.136290648101143e-13,
        -7.055783366426149e-13
      ],
      "type": "VEC4"
    },
    {
      "bufferView": 6,
      "byteOffset": 29256,
      "componentType": 5126,
      "count": 82,
      "max": [
        4.166666507720947
      ],
      "min": [
        0.0
      ],
      "type": "SCALAR"
    },
    {
      "bufferView": 7,
      "byteOffset": 39756,
      "componentType": 5126,
      "count": 82,
      "max": [
        57.3784294128418,
        -14.005180358886719,
        19.03408432006836
      ],
      "min": [
        51.96235275268555,
        -27.587017059326172,
        14.424578666687012
      ],
      "type": "VEC3"
    },
    {
      "bufferView": 6,
      "byteOffset": 29584,
      "componentType": 5126,
      "count": 201,
      "max": [
        4.166666507720947
      ],
      "min": [
        0.0
      ],
      "type": "SCALAR"
    },
    {
      "bufferView": 8,
      "byteOffset": 64016,
      "componentType": 5126,
      "count": 201,
      "max": [
        0.9822912812232971,
        0.07739102840423584,
        -0.014181651175022125,
        0.16034115850925446
      ],
      "min": [
        0.8290450572967529,
        -0.533613920211792,
        -0.16604670882225037,
        -0.00536766555160284
      ],
      "type": "VEC4"
    },
    {
      "bufferView": 6,
      "byteOffset": 30388,
      "componentType": 5126,
      "count": 173,
      "max": [
        4.166666507720947
      ],
      "min": [
        0.0
      ],
      "type": "SCALAR"
    },
    {
      "bufferView": 7,
      "byteOffset": 40740,
      "componentType": 5126,
      "count": 173,
      "max": [
        44.0573616027832,
        2.842170943040401e-14,
        -3.043041090222687e-07
      ],
      "min": [
        44.0573616027832,
        -1.4210854715202004e-14,
        -3.043041090222687e-07
      ],
      "type": "VEC3"
    },
    {
      "bufferView": 6,
      "byteOffset": 31080,
      "componentType": 5126,
      "count": 82,
      "max": [
        4.166666507720947
      ],
      "min": [
        0.0
      ],
      "type": "SCALAR"
    },
    {
      "bufferView": 8,
      "byteOffset": 67232,
      "componentType": 5126,
      "count": 82,
      "max": [
        0.040906716138124466,
        1.7179479656547223e-32,
        -0.5999119877815247,
        0.7983719110488892
      ],
      "min": [
        2.839632593200181e-32,
        -0.0761232003569603,
        -0.6024491786956787,
        0.7953851222991943
      ],
      "type": "VEC4"
    },
    {
      "bufferView": 6,
      "byteOffset": 31408,
      "componentType": 5126,
      "count": 157,
      "max": [
        4.166666507720947
      ],
      "min": [
        0.0
      ],
      "type": "SCALAR"
    },
    {
      "bufferView": 7,
      "byteOffset": 42816,
      "componentType": 5126,
      "count": 157,
      "max": [
        53.784786224365234,
        1.4210854715202004e-14,
        1.7763568394002505e-15
      ],
      "min": [
        53.784786224365234,
        -2.842170943040401e-14,
        -4.440892098500626e-16
      ],
      "type": "VEC3"
    },
    {
      "bufferView": 6,
      "byteOffset": 32036,
      "componentType": 5126,
      "count": 82,
      "max": [
        4.166666507720947
      ],
      "min": [
        0.0
      ],
      "type": "SCALAR"
    },
    {
      "bufferView": 8,
      "byteOffset": 68544,
      "componentType": 5126,
      "count": 82,
      "max": [
        0.008114712312817574,
        2.83934985007461e-33,
        0.2667921483516693,
        0.9637796878814697
      ],
      "min": [
        -3.5955956550762835e-32,
        -0.06912551820278168,
        0.2660529613494873,
        0.9614424705505371
      ],
      "type": "VEC4"
    },
    {
      "bufferView": 6,
      "byteOffset": 32364,
      "componentType": 5126,
      "count": 103,
      "max": [
        4.166666507720947
      ],
      "min": [
        0.0
      ],
      "type": "SCALAR"
    },
    {
      "bufferView": 7,
      "byteOffset": 44700,
      "componentType": 5126,
      "count": 103,
      "max": [
        -2.918654203414917,
        0.041344720870256424,
        1.5543122344752192e-15
      ],
      "min": [
        -2.918654203414917,
        0.041344720870256424,
        -4.440892098500626e-16
      ],
      "type": "VEC3"
    },
    {
      "bufferView": 6,
      "byteOffset": 32776,
      "componentType": 5126,
      "count": 50,
      "max": [
        4.166666507720947
      ],
      "min": [
        0.0
      ],
      "type": "SCALAR"
    },
    {
      "bufferView": 8,
      "byteOffset": 69856,
      "componentType": 5126,
      "count": 50,
      "max": [
        -0.2852189540863037,
        0.9584624171257019,
        1.3045807893347396e-17,
        -1.3550076054477688e-16
      ],
      "min": [
        -0.2852189540863037,
        0.9584624171257019,
        -1.0470306609908415e-16,
        -1.725083446943665e-16
      ],
      "type": "VEC4"
    },
    {
      "bufferView": 6,
      "byteOffset": 32976,
      "componentType": 5126,
      "count": 22,
      "max": [
        4.166666507720947
      ],
      "min": [
        0.0
      ],
      "type": "SCALAR"
    },
    {
      "bufferView": 8,
      "byteOffset": 70656,
      "componentType": 5126,
      "count": 22,
      "max": [
        0.15955106914043427,
        -0.6888711452484131,
        -0.025416938588023186,
        0.7066498398780823
      ],
      "min": [
        0.15955106914043427,
        -0.6888711452484131,
        -0.025416938588023186,
        0.7066498398780823
      ],
      "type": "VEC4"
    },
    {
      "bufferView": 6,
      "byteOffset": 33064,
      "componentType": 5126,
      "count": 201,
      "max": [
        4.166666507720947
      ],
      "min": [
        0.0
      ],
      "type": "SCALAR"
    },
    {
      "bufferView": 7,
      "byteOffset": 45936,
      "componentType": 5126,
      "count": 201,
      "max": [
        -1.3283898830413818,
        136.15077209472656,
        -31.343416213989258
      ],
      "min": [
        -3.6092591285705566,
        116.57696533203125,
        -92.30487823486328
      ],
      "type": "VEC3"
    },
    {
      "bufferView": 6,
      "byteOffset": 33868,
      "componentType": 5126,
      "count": 50,
      "max": [
        4.166666507720947
      ],
      "min": [
        0.0
      ],
      "type": "SCALAR"
    },
    {
      "bufferView": 8,
      "byteOffset": 71008,
      "componentType": 5126,
      "count": 50,
      "max": [
        -0.04934697598218918,
        0.7077121734619141,
        -0.050981972366571426,
        0.7038629055023193
      ],
      "min": [
        -0.0676536113023758,
        0.7038629055023193,
        -0.0676536113023758,
        0.7029290199279785
      ],
      "type": "VEC4"
    }
  ],
  "animations": [
    {
      "channels": [
        {
          "sampler": 0,
          "target": {
            "node": 11,
            "path": "translation"
          }
        },
        {
          "sampler": 1,
          "target": {
            "node": 11,
            "path": "rotation"
          }
        },
        {
          "sampler": 2,
          "target": {
            "node": 10,
            "path": "translation"
          }
        },
        {
          "sampler": 3,
          "target": {
            "node": 10,
            "path": "rotation"
          }
        },
        {
          "sampler": 4,
          "target": {
            "node": 9,
            "path": "translation"
          }
        },
        {
          "sampler": 5,
          "target": {
            "node": 9,
            "path": "rotation"
          }
        },
        {
          "sampler": 6,
          "target": {
            "node": 15,
            "path": "translation"
          }
        },
        {
          "sampler": 7,
          "target": {
            "node": 15,
            "path": "rotation"
          }
        },
        {
          "sampler": 8,
          "target": {
            "node": 14,
            "path": "translation"
          }
        },
        {
          "sampler": 9,
          "target": {
            "node": 14,
            "path": "rotation"
          }
        },
        {
          "sampler": 10,
          "target": {
            "node": 13,
            "path": "translation"
          }
        },
        {
          "sampler": 11,
          "target": {
            "node": 13,
            "path": "rotation"
          }
        },
        {
          "sampler": 12,
          "target": {
            "node": 12,
            "path": "rotation"
          }
        },
        {
          "sampler": 13,
          "target": {
            "node": 19,
            "path": "translation"
          }
        },
        {
          "sampler": 14,
          "target": {
            "node": 19,
            "path": "rotation"
          }
        },
        {
          "sampler": 15,
          "target": {
            "node": 18,
            "path": "translation"
          }
        },
        {
          "sampler": 16,
          "target": {
            "node": 18,
            "path": "rotation"
          }
        },
        {
          "sampler": 17,
          "target": {
            "node": 17,
            "path": "translation"
          }
        },
        {
          "sampler": 18,
          "target": {
            "node": 17,
            "path": "rotation"
          }
        },
        {
          "sampler": 19,
          "target": {
            "node": 16,
            "path": "translation"
          }
        },
        {
          "sampler": 20,
          "target": {
            "node": 16,
            "path": "rotation"
          }
        },
        {
          "sampler": 21,
          "target": {
            "node": 25,
            "path": "rotation"
          }
        },
        {
          "sampler": 22,
          "target": {
            "node": 24,
            "path": "translation"
          }
        },
        {
          "sampler": 23,
          "target": {
            "node": 24,
            "path": "rotation"
          }
        },
        {
          "sampler": 24,
          "target": {
            "node": 23,
            "path": "translation"
          }
        },
        {
          "sampler": 25,
          "target": {
            "node": 23,
            "path": "rotation"
          }
        },
        {
          "sampler": 26,
          "target": {
            "node": 29,
            "path": "translation"
          }
        },
        {
          "sampler": 27,
          "target": {
            "node": 29,
            "path": "rotation"
          }
        },
        {
          "sampler": 28,
          "target": {
            "node": 28,
            "path": "translation"
          }
        },
        {
          "sampler": 29,
          "target": {
            "node": 28,
            "path": "rotation"
          }
        },
        {
          "sampler": 30,
          "target": {
            "node": 27,
            "path": "translation"
          }
        },
        {
          "sampler": 31,
          "target": {
            "node": 27,
            "path": "rotation"
          }
        },
        {
          "sampler": 32,
          "target": {
            "node": 26,
            "path": "rotation"
          }
        },
        {
          "sampler": 33,
          "target": {
            "node": 33,
            "path": "translation"
          }
        },
        {
          "sampler": 34,
          "target": {
            "node": 33,
            "path": "rotation"
          }
        },
        {
          "sampler": 35,
          "target": {
            "node": 32,
            "path": "translation"
          }
        },
        {
          "sampler": 36,
          "target": {
            "node": 32,
            "path": "rotation"
          }
        },
        {
          "sampler": 37,
          "target": {
            "node": 31,
            "path": "translation"
          }
        },
        {
          "sampler": 38,
          "target": {
            "node": 31,
            "path": "rotation"
          }
        },
        {
          "sampler": 39,
          "target": {
            "node": 30,
            "path": "translation"
          }
        },
        {
          "sampler": 40,
          "target": {
            "node": 30,
            "path": "rotation"
          }
        },
        {
          "sampler": 41,
          "target": {
            "node": 22,
            "path": "translation"
          }
        },
        {
          "sampler": 42,
          "target": {
            "node": 22,
            "path": "rotation"
          }
        },
        {
          "sampler": 43,
          "target": {
            "node": 21,
            "path": "translation"
          }
        },
        {
          "sampler": 44,
          "target": {
            "node": 21,
            "path": "rotation"
          }
        },
        {
          "sampler": 45,
          "target": {
            "node": 20,
            "path": "translation"
          }
        },
        {
          "sampler": 46,
          "target": {
            "node": 20,
            "path": "rotation"
          }
        },
        {
          "sampler": 47,
          "target": {
            "node": 34,
            "path": "rotation"
          }
        },
        {
          "sampler": 48,
          "target": {
            "node": 8,
            "path": "translation"
          }
        },
        {
          "sampler": 49,
          "target": {
            "node": 8,
            "path": "rotation"
          }
        }
      ],
      "name": "Take 001",
      "samplers": [
        {
          "input": 7,
          "interpolation": "LINEAR",
          "output": 8
        },
        {
          "input": 9,
          "interpolation": "LINEAR",
          "output": 10
        },
        {
          "input": 11,
          "interpolation": "LINEAR",
          "output": 12
        },
        {
          "input": 13,
          "interpolation": "LINEAR",
          "output": 14
        },
        {
          "input": 15,
          "interpolation": "LINEAR",
          "output": 16
        },
        {
          "input": 17,
          "interpolation": "LINEAR",
          "output": 18
        },
        {
          "input": 19,
          "interpolation": "LINEAR",
          "output": 20
        },
        {
          "input": 21,
          "interpolation": "LINEAR",
          "output": 22
        },
        {
          "input": 23,
          "interpolation": "LINEAR",
          "output": 24
        },
        {
          "input": 25,
          "interpolation": "LINEAR",
          "output": 26
        },
        {
          "input": 27,
          "interpolation": "LINEAR",
          "output": 28
        },
        {
          "input": 29,
          "interpolation": "LINEAR",
          "output": 30
        },
        {
          "input": 31,
          "interpolation": "LINEAR",
          "output": 32
        },
        {
          "input": 33,
          "interpolation": "LINEAR",
          "output": 34
        },
        {
          "input": 35,
          "interpolation": "LINEAR",
          "output": 36
        },
        {
          "input": 37,
          "interpolation": "LINEAR",
          "output": 38
        },
        {
          "input": 39,
          "interpolation": "LINEAR",
          "output": 40
        },
        {
          "input": 41,
          "interpolation": "LINEAR",
          "output": 42
        },
        {
          "input": 43,
          "interpolation": "LINEAR",
          "output": 44
        },
        {
          "input": 45,
          "interpolation": "LINEAR",
          "output": 46
        },
        {
          "input": 47,
          "interpolation": "LINEAR",
          "output": 48
        },
        {
          "input": 49,
          "interpolation": "LINEAR",
          "output": 50
        },
        {
          "input": 51,
          "interpolation": "LINEAR",
          "output": 52
        },
        {
          "input": 53,
          "interpolation": "LINEAR",
          "output": 54
        },
        {
          "input": 55,
          "interpolation": "LINEAR",
          "output": 56
        },
        {
          "input": 57,
          "interpolation": "LINEAR",
          "output": 58
        },
        {
          "input": 59,
          "interpolation": "LINEAR",
          "output": 60
        },
        {
          "input": 61,
          "interpolation": "LINEAR",
          "output": 62
        },
        {
          "input": 63,
          "interpolation": "LINEAR",
          "output": 64
        },
        {
          "input": 65,
          "interpolation": "LINEAR",
          "output": 66
        },
        {
          "input": 67,
          "interpolation": "LINEAR",
          "output": 68
        },
        {
          "input": 69,
          "interpolation": "LINEAR",
          "output": 70
        },
        {
          "input": 71,
          "interpolation": "LINEAR",
          "output": 72
        },
        {
          "input": 73,
          "interpolation": "LINEAR",
          "output": 74
        },
        {
          "input": 75,
          "interpolation": "LINEAR",
          "output": 76
        },
        {
          "input": 77,
          "interpolation": "LINEAR",
          "output": 78
        },
        {
          "input": 79,
          "interpolation": "LINEAR",
          "output": 80
        },
        {
          "input": 81,
          "interpolation": "LINEAR",
          "output": 82
        },
        {
          "input": 83,
          "interpolation": "LINEAR",
          "output": 84
        },
        {
          "input": 85,
          "interpolation": "LINEAR",
          "output": 86
        },
        {
          "input": 87,
          "interpolation": "LINEAR",
          "output": 88
        },
        {
          "input": 89,
          "interpolation": "LINEAR",
          "output": 90
        },
        {
          "input": 91,
          "interpolation": "LINEAR",
          "output": 92
        },
        {
          "input": 93,
          "interpolation": "LINEAR",
          "output": 94
        },
        {
          "input": 95,
          "interpolation": "LINEAR",
          "output": 96
        },
        {
          "input": 97,
          "interpolation": "LINEAR",
          "output": 98
        },
        {
          "input": 99,
          "interpolation": "LINEAR",
          "output": 100
        },
        {
          "input": 101,
          "interpolation": "LINEAR",
          "output": 102
        },
        {
          "input": 103,
          "interpolation": "LINEAR",
          "output": 104
        },
        {
          "input": 105,
          "interpolation": "LINEAR",
          "output": 106
        }
      ]
    }
  ],
  "asset": {
    "extras": {
      "author": "Тимох (https://sketchfab.com/Jguyfioy)",
      "license": "CC-BY-4.0 (http://creativecommons.org/licenses/by/4.0/)",
      "source": "https://sketchfab.com/3d-models/bbea9a5ef3894cc3a26ce177ae3e15bb",
      "title": "Корова"
    },
    "generator": "Sketchfab-0.6.0",
    "version": "2.0"
  },
  "bufferViews": [
    {
      "buffer": 0,
      "byteLength": 5720,
      "byteStride": 8,
      "name": "shortBufferViews",
      "target": 34962
    },
    {
      "buffer": 0,
      "byteLength": 13224,
      "byteOffset": 5720,
      "name": "floatBufferViews",
      "target": 34963
    },
    {
      "buffer": 0,
      "byteLength": 5720,
      "byteOffset": 18944,
      "byteStride": 8,
      "name": "floatBufferViews",
      "target": 34962
    },
    {
      "buffer": 0,
      "byteLength": 17160,
      "byteOffset": 24664,
      "byteStride": 12,
      "name": "floatBufferViews",
      "target": 34962
    },
    {
      "buffer": 0,
      "byteLength": 11440,
      "byteOffset": 41824,
      "byteStride": 16,
      "name": "floatBufferViews",
      "target": 34962
    },
    {
      "buffer": 0,
      "byteLength": 1792,
      "byteOffset": 53264,
      "name": "floatBufferViews"
    },
    {
      "buffer": 0,
      "byteLength": 34068,
      "byteOffset": 55056,
      "name": "floatBufferViews"
    },
    {
      "buffer": 0,
      "byteLength": 48348,
      "byteOffset": 89124,
      "byteStride": 12,
      "name": "floatBufferViews"
    },
    {
      "buffer": 0,
      "byteLength": 71808,
      "byteOffset": 137472,
      "byteStride": 16,
      "name": "floatBufferViews"
    }
  ],
  "buffers": [
    {
      "byteLength": 209280,
      "uri": "scene.bin"
    }
  ],
  "images": [
    {
      "uri": "textures/mucka_lambert2_baseColor.png"
    }
  ],
  "materials": [
    {
      "doubleSided": true,
      "name": "mucka_lambert2",
      "pbrMetallicRoughness": {
        "baseColorTexture": {
          "index": 0
        },
        "metallicFactor": 0.0,
        "roughnessFactor": 0.6
      }
    }
  ],
  "meshes": [
    {
      "name": "mucka_cow_msh4_mucka_lambert2_0",
      "primitives": [
        {
          "attributes": {
            "JOINTS_0": 5,
            "NORMAL": 1,
            "POSITION": 0,
            "TEXCOORD_0": 2,
            "WEIGHTS_0": 6
          },
          "indices": 3,
          "material": 0,
          "mode": 4
        }
      ]
    }
  ],
  "nodes": [
    {
      "children": [
        1
      ],
      "matrix": [
        1.0,
        0.0,
        0.0,
        0.0,
        0.0,
        2.220446049250313e-16,
        -1.0,
        0.0,
        0.0,
        1.0,
        2.220446049250313e-16,
        0.0,
        0.0,
        0.0,
        0.0,
        1.0
      ],
      "name": "Sketchfab_model"
    },
    {
      "children": [
        2
      ],
      "matrix": [
        0.009999999776482582,
        0.0,
        0.0,
        0.0,
        0.0,
        0.0,
        0.009999999776482582,
        0.0,
        0.0,
        -0.009999999776482582,
        0.0,
        0.0,
        0.0,
        0.0,
        0.0,
        1.0
      ],
      "name": "526f2588db484ba3afd86bafd338d676.fbx"
    },
    {
      "children": [
        3
      ],
      "name": "Object_2"
    },
    {
      "children": [
        4
      ],
      "name": "RootNode"
    },
    {
      "children": [
        5,
        7,
        6,
        35,
        37,
        38
      ],
      "name": "Object_4"
    },
    {
      "children": [
        8
      ],
      "name": "_rootJoint"
    },
    {
      "matrix": [
        1.0,
        -1.925929944387236e-34,
        0.0,
        0.0,
        1.925929944387236e-34,
        1.0,
        1.3074935419895038e-35,
        0.0,
        -2.518140964610515e-69,
        -1.3074935419895038e-35,
        1.0,
        0.0,
        0.0,
        0.0,
        7.105427357601002e-15,
        1.0
      ],
      "name": "Object_6"
    },
    {
      "mesh": 0,
      "name": "Object_7",
      "skin": 0
    },
    {
      "children": [
        9,
        12,
        16,
        20,
        34
      ],
      "name": "Hips_00",
      "rotation": [
        -0.0676536113023758,
        0.7038629055023193,
        -0.0676536113023758,
        0.7038629055023193
      ],
      "translation": [
        -1.3283898830413818,
        135.3665771484375,
        -47.70234298706055
      ]
    },
    {
      "children": [
        10
      ],
      "name": "Tail_01",
      "rotation": [
        0.07605581730604172,
        0.07668976485729218,
        -0.4661604166030884,
        0.8780823945999146
      ],
      "translation": [
        22.219202041625977,
        0.0,
        -9.769962616701378e-15
      ]
    },
    {
      "children": [
        11
      ],
      "name": "Tail1_02",
      "rotation": [
        0.9801488518714905,
        -0.16544224321842194,
        -0.10884137451648712,
        0.009532760828733444
      ],
      "translation": [
        24.494352340698242,
        0.0,
        7.105427357601002e-15
      ]
    },
    {
      "name": "Tail2_03",
      "rotation": [
        -0.5044115781784058,
        0.5182311534881592,
        0.3628491461277008,
        0.5876614451408386
      ],
      "translation": [
        26.08688735961914,
        0.0,
        -3.552713678800501e-14
      ]
    },
    {
      "children": [
        13
      ],
      "name": "LeftUpLeg_04",
      "rotation": [
        -0.0074502830393612385,
        -0.008526317775249481,
        -0.43661683797836304,
        0.8995764255523682
      ],
      "translation": [
        0.8313699960708618,
        -60.565513610839844,
        18.450761795043945
      ]
    },
    {
      "children": [
        14
      ],
      "name": "LeftLeg_05",
      "rotation": [
        0.9576865434646606,
        -0.28781333565711975,
        -1.440467373386991e-17,
        5.960873267060461e-17
      ],
      "translation": [
        35.34657669067383,
        0.0,
        -3.552713678800501e-15
      ]
    },
    {
      "children": [
        15
      ],
      "name": "LeftFoot_06",
      "rotation": [
        -0.07475761324167252,
        0.008776490576565266,
        0.15383762121200562,
        0.9852250814437866
      ],
      "translation": [
        29.384700775146484,
        0.0,
        1.0658141036401503e-14
      ]
    },
    {
      "name": "LeftFoot_End_07",
      "rotation": [
        -0.3560737073421478,
        0.5488928556442261,
        0.41157811880111694,
        0.6344537734985352
      ],
      "translation": [
        13.746819496154785,
        0.0,
        0.0
      ]
    },
    {
      "children": [
        17
      ],
      "name": "RightUpLeg_08",
      "rotation": [
        -0.007450286764651537,
        -0.008526305668056011,
        -0.4366166591644287,
        0.8995763659477234
      ],
      "translation": [
        0.8313679099082947,
        -60.565486907958984,
        -18.574390411376953
      ]
    },
    {
      "children": [
        18
      ],
      "name": "RightLeg_09",
      "rotation": [
        0.9576866030693054,
        -0.2878134548664093,
        -1.2639527382144014e-17,
        6.013922014104712e-17
      ],
      "translation": [
        35.346561431884766,
        -1.4210854715202004e-14,
        -7.105427357601002e-15
      ]
    },
    {
      "children": [
        19
      ],
      "name": "RightFoot_010",
      "rotation": [
        0.06446243822574615,
        -0.028880178928375244,
        0.1554686427116394,
        0.9853121638298035
      ],
      "translation": [
        29.384750366210938,
        0.0,
        3.552713678800501e-15
      ]
    },
    {
      "name": "RightFoot_end_011",
      "rotation": [
        -0.5488927364349365,
        -0.35607343912124634,
        0.634454071521759,
        -0.41157811880111694
      ],
      "translation": [
        13.74682331085205,
        0.0,
        3.552713678800501e-15
      ]
    },
    {
      "children": [
        21
      ],
      "name": "Spin_012",
      "rotation": [
        -0.2852189540863037,
        0.9584624171257019,
        -1.045556029569231e-16,
        -1.366678793018647e-16
      ],
      "translation": [
        -2.918654203414917,
        0.041344720870256424,
        1.3322676295501878e-15
      ]
    },
    {
      "children": [
        22
      ],
      "name": "Spin1_013",
      "rotation": [
        -3.5955956550762835e-32,
        2.83934985007461e-33,
        0.26669973134994507,
        0.9637796878814697
      ],
      "translation": [
        53.784786224365234,
        -2.842170943040401e-14,
        1.3322676295501878e-15
      ]
    },
    {
      "children": [
        23,
        26,
        30
      ],
      "name": "Spin2_014",
      "rotation": [
        2.839632593200181e-32,
        1.7179479656547223e-32,
        -0.6021646857261658,
        0.7983719110488892
      ],
      "translation": [
        44.0573616027832,
        0.0,
        -3.043041090222687e-07
      ]
    },
    {
      "children": [
        24
      ],
      "name": "Neck_015",
      "rotation": [
        0.02060832269489765,
        0.0008793484303168952,
        0.7712007164955139,
        0.6362578272819519
      ],
      "translation": [
        41.831748962402344,
        1.4210854715202004e-14,
        1.1102230246251565e-15
      ]
    },
    {
      "children": [
        25
      ],
      "name": "Head_016",
      "rotation": [
        -0.005918723996728659,
        -0.003115830011665821,
        -0.3764171898365021,
        0.926426112651825
      ],
      "translation": [
        37.370872497558594,
        -0.5436109304428101,
        -1.4654943925052066e-14
      ]
    },
    {
      "name": "joint1_017",
      "rotation": [
        0.00871252827346325,
        0.7078075408935547,
        -0.00840285699814558,
        0.7063016295433044
      ],
      "translation": [
        44.24072265625,
        -16.459808349609375,
        -0.02570524252951145
      ]
    },
    {
      "children": [
        27
      ],
      "name": "LeftArm_018",
      "rotation": [
        0.9512877464294434,
        -0.30797016620635986,
        -0.014181640930473804,
        -0.00221364782191813
      ],
      "translation": [
        51.96232223510742,
        -27.58698272705078,
        -19.034088134765625
      ]
    },
    {
      "children": [
        28
      ],
      "name": "LeftForeArm_019",
      "rotation": [
        0.9857047200202942,
        -0.16848213970661163,
        -1.8829129065384836e-14,
        -7.052056963559317e-13
      ],
      "translation": [
        26.482833862304688,
        0.0,
        -8.537526241525484e-09
      ]
    },
    {
      "children": [
        29
      ],
      "name": "LeftHand_020",
      "rotation": [
        -0.0037007955834269524,
        0.003359774127602577,
        0.12784314155578613,
        0.9917818307876587
      ],
      "translation": [
        23.146955490112305,
        -7.105427357601002e-15,
        -4.9903903232007e-10
      ]
    },
    {
      "name": "LefHand_end_021",
      "rotation": [
        -0.34881824254989624,
        0.5283364653587341,
        0.42649006843566895,
        0.6459819078445435
      ],
      "translation": [
        12.473179817199707,
        0.0,
        0.0
      ]
    },
    {
      "children": [
        31
      ],
      "name": "RightArm_022",
      "rotation": [
        0.9512876868247986,
        -0.30797064304351807,
        -0.014181653037667274,
        -0.0022136513143777847
      ],
      "translation": [
        51.96235275268555,
        -27.587017059326172,
        19.03408432006836
      ]
    },
    {
      "children": [
        32
      ],
      "name": "RightForeArm_023",
      "rotation": [
        0.9857046604156494,
        -0.16848227381706238,
        -1.8827695885638082e-14,
        -7.052054795154972e-13
      ],
      "translation": [
        26.482797622680664,
        0.0,
        -8.537515583384447e-09
      ]
    },
    {
      "children": [
        33
      ],
      "name": "RightHand_024",
      "rotation": [
        0.09160276502370834,
        -0.04055292159318924,
        0.13033193349838257,
        0.9863964915275574
      ],
      "translation": [
        23.146955490112305,
        7.105427357601002e-15,
        -4.990425850337488e-10
      ]
    },
    {
      "name": "LefHand_end_025",
      "rotation": [
        -0.5283343195915222,
        -0.3488161563873291,
        0.6459842920303345,
        -0.426490843296051
      ],
      "translation": [
        12.473183631896973,
        -1.4210854715202004e-14,
        -1.7763568394002505e-15
      ]
    },
    {
      "name": "Udders_026",
      "rotation": [
        0.15955106914043427,
        -0.6888711452484131,
        -0.025416938588023186,
        0.7066498398780823
      ],
      "translation": [
        -6.95174503326416,
        -74.37382507324219,
        1.3283898830413818
      ]
    },
    {
      "children": [
        36
      ],
      "name": "left",
      "rotation": [
        0.0,
        1.1102230246251565e-16,
        0.0,
        1.0
      ],
      "translation": [
        -253.57769775390625,
        116.8292465209961,
        12.964757919311523
      ]
    },
    {
      "name": "Object_36"
    },
    {
      "name": "imagePlane2",
      "rotation": [
        -0.0,
        -0.7071068286895752,
        0.0,
        0.7071068286895752
      ],
      "scale": [
        44.86372756958008,
        44.86372756958008,
        44.86372756958008
      ],
      "translation": [
        -425.8406066894531,
        101.54180145263672,
        75.53201293945313
      ]
    },
    {
      "name": "mucka_cow_msh4"
    }
  ],
  "samplers": [
    {
      "magFilter": 9729,
      "minFilter": 9987,
      "wrapS": 10497,
      "wrapT": 10497
    }
  ],
  "scene": 0,
  "scenes": [
    {
      "name": "Sketchfab_Scene",
      "nodes": [
        0
      ]
    }
  ],
  "skins": [
    {
      "inverseBindMatrices": 4,
      "joints": [
        5,
        8,
        9,
        10,
        11,
        12,
        13,
        14,
        15,
        16,
        17,
        18,
        19,
        20,
        21,
        22,
        23,
        24,
        25,
        26,
        27,
        28,
        29,
        30,
        31,
        32,
        33,
        34
      ],
      "skeleton": 5
    }
  ],
  "textures": [
    {
      "sampler": 0,
      "source": 0
    }
  ]
}
